<?xml version="1.0" encoding="utf-8"?>
<!-- Generator: Adobe Illustrator 24.1.0, SVG Export Plug-In . SVG Version: 6.00 Build 0)  -->
<svg version="1.1" id="Layer_1" xmlns="http://www.w3.org/2000/svg" xmlns:xlink="http://www.w3.org/1999/xlink" x="0px" y="0px"
	 viewBox="0 0 86.1 94.2" style="enable-background:new 0 0 86.1 94.2;" xml:space="preserve">
<style type="text/css">
	.st0{fill:#FFFFFF;}
	.st1{fill:#132645;}
	.st2{fill:#FFD03B;}
	.st3{fill:#003EC9;}
	.st4{fill:#FC736C;}
</style>
<path class="st0" d="M38.9,1.6c0,0-5.2-1.2-9.8,0.4s-9.5,5.1-8.3,13c1.2,7.9,2.5,9.8,6.1,10.2c3.7,0.4,9.8-0.3,13.9-0.3
	c4.1,0,6.4-1.1,6.4-1.1s5.7,1,6.4-0.7c0.7-1.7,1.5-2.1,1.5-2.1s5.4,1.2,6.1-2.8S56.4,4.8,54.6,3.6s-7.2-2.9-7.2-2.9S41.7,2,38.9,1.6
	z"/>
<path class="st1" d="M54.4,22c0,0.1,0,0.3,0.2,0.2h-0.1c0.1-0.1,0.3-0.1,0.5,0c1.4,0.1,2.4,0,3.7-0.3c1.8-1,3.6-2.3,3.6-4.6l0,0
	c0.3-3.2-1.7-5.9-2.6-8.7C55.5,2.3,57,2.9,49.3,0.1c-0.4,0.2-0.9,0-1.3,0c-0.2,0.2-0.4,0.4-0.6,0.6c0.7,0.9,2,1.1,2.8,1.8
	c1.3,0.6,3.2,0.4,3.6,2c0.9,0.7,1.9,1.6,2.2,2.7c-0.4,1.6,2.1,3.1,2.4,4.8v-0.1V12c0.5,1.5,1.3,3,1.3,4.7l0.2,0.2v-0.1l0,0
	c0,0.7,0.1,1.4-0.3,2c-0.8,0.1-1.6,1-2.5,0.8c-0.1,0-0.2,0-0.1-0.2c0.5-1,0.2-2.1,0.2-3.2l-2.9,0.1l0,0c0,0.3,0.1,0.7,0.1,1
	c-0.6,1.5,0.1,3.7-1.2,5c-0.2,0-0.4,0-0.6-0.1c-0.6,0.4-1.3,0.1-1.9,0.2c-0.3,0.1-0.4,0.3-0.8,0.3c0-0.2,0.3-0.5,0.1-0.6l0,0
	c-0.1-1.7-0.5-3.3-0.3-5l-3.1,0.1c0.4,1.5-0.2,3-0.3,4.5l0.1,0.1c-0.2,0.4,0,1.3-0.6,1.4c-1.6,0.2-3.1-0.3-4.7-0.2
	c-0.3,0-1.5,0.2-1.8,0c-0.8-0.3-1.8,0.4-2.6,0.4c-0.4,0.1-0.9,0.1-1.3,0l0.5-0.1c-0.9-0.3-1.8,0-2.6-0.4c-0.6-0.4-1.3,0.1-2,0
	C30.1,23,29.2,24,28,24c-0.3,0.6-0.7,0-1.2-0.1c-0.4-0.2-1-0.1-1.1-0.4c-1.6-1.1-2.2-3.5-2.7-5.3c-0.4-1.6-1-4.1-0.6-5.7
	C22,9.7,23.3,7,24.7,4.6c0.7-0.1,1.3-0.7,1.9-1.1c4-1.4,8.3-2.3,12.6-1.4l0.3-0.3c-0.2-0.2,0.1-0.3,0.2-0.4C39.2,0.9,38.5,1,38,1.1
	c-1-0.3-2.1-0.3-3.2-0.6L35,0.4c-1.9-0.8-4.2-0.1-6.1,0.4c-1.5-0.9-3.4,1-4.4,2.1c-2.1,0.4-3.2,2.7-4,4.5l0.1,0.1
	c-0.4,2.3-0.8,4.6-1.1,7c1,1.9,0.6,4.3,1.9,5.9c0.6,5,4.6,6.7,9.2,6.2c0.2-0.1,0.4-0.2,0.6-0.2c0.1-0.1,0.5-0.3,0.5-0.4l0,0
	c0.7-0.3,1.9-0.2,2.6-0.3c0.9,0.5,2.3,0.1,3.1,0.6c0.9-0.2,1.8,0,2.8-0.1c0.5,0.5,1.2,0,1.8,0.2c2.5,0.1,6.1-0.1,6.8-3.2l-0.2,0.1
	c0.8-2.2,1.1-4.3,0.8-6.7l-2.9,0.1c0,0.3-0.1,0.5,0,0.8c0-0.1,0-0.5,0.2-0.5c0.3,2.3-0.4,5.2,0.9,7.4c1,1.1,2.8,0.5,4.1,0.7
	c4.2,0.6,4.8-4.1,5.4-7c0.3-0.7,0.4-1.5,0.2-2.2L54,16C54.5,18.1,54.2,20.1,54.4,22L54.4,22z M52.1,25c0.1,0,0.1,0,0.2,0v0.1
	l-0.4,0.1C51.7,25.1,52,25.1,52.1,25z M27.7,2.8L27.7,2.8L27.7,2.8L27.7,2.8z M47.3,23.2L47.3,23.2v-0.1l0,0V23.2z"/>
<path class="st1" d="M62.3,17.4l0.1,0.1L62.3,17.4z"/>
<path class="st1" d="M55,22.3h0.2H55L55,22.3z"/>
<path class="st1" d="M54.6,22.3L54.6,22.3c-0.1-0.1-0.1-0.2-0.1-0.3l0,0C54.5,22.1,54.5,22.4,54.6,22.3L54.6,22.3z"/>
<polygon class="st1" points="55,22.2 54.6,22.3 54.6,22.3 54.7,22.2 54.6,22.2 55.1,22.2 55,22.2 55,22.3 "/>
<polygon class="st1" points="58.7,21.9 58.8,21.9 58.8,21.9 "/>
<path class="st1" d="M42.1,26.5L42.1,26.5L42.1,26.5L42.1,26.5z"/>
<polygon class="st1" points="36.9,23.4 36.8,23.3 36.8,23.4 "/>
<path class="st0" d="M29.5,14.3c0,0,5.7,29.5,10,29.5c6,1.6,1.2-24.8,1.8-24.8"/>
<path class="st1" d="M34.2,28c-0.3-0.1,0.1-0.5-0.2-0.7c-0.1-0.4-0.2-0.6-0.5-1c-0.3-0.3-0.2-1.2-0.4-1.6l0,0
	c-0.2-1.2-0.6-2.4-0.8-3.4c-0.4-0.5-0.5-1.3-0.8-2c0.1-0.3,0.6-0.7,0.3-1c-0.1-1.2-1.2-2.1-1.3-3.4c-1.1-1.4-1.6,0-1.8,1.1
	c0.1,0.8,1.2,1.4,0.4,2.1c0,0.6,0.3,1.3,0.1,1.9c-1.1,0.4,0.6,1.9,0.6,2.6l0,0l0,0c0.2,0.8,0.3,1.9,0.7,2.6c1,1.9,0.3,4.1,1.4,6.2
	c-0.2,1.1,1.4,2.2,1,3.5c1.2,1.8,0.8,4,2.1,5.9c0.7,2.8,5.1,7.3,7.3,3.1c0.1-0.3,0.3-0.6,0.5-0.8c0,0.1,0,0.3-0.1,0.4
	c1.4-1.2,1.3-2.8,1-4.5c-0.6-0.1,0.2-0.4,0-0.7c-0.1-1.1-0.3-2-0.7-3.1c0.1-1.1,0.3-2.3,0.1-3.2c-0.2-0.2,0-0.5,0.2-0.7
	c-0.5-1.4,0.3-3.2-0.8-4.5c0.7-2.4-0.6-5.1-0.4-7.6c-1.5-0.6-0.4,1.4-1,2.2c-1.1,0.1-0.2,2.1-0.3,2.8c-1,0.3-0.4,1.4,0.1,1.9
	c0,0.7-0.4,1.9-0.3,3h0.2c0.4,1.3,0,2-0.5,3.1c0.8,0.8-0.1,2.2,0.7,2.8c-0.4,0.8-0.2,1.2,0.1,2.5c-0.2,1.6-0.6,2.7-0.3,4.3
	c-0.4,0-0.5,0.6-0.9,0.3l0,0c0,0.1,0,0.1,0,0.2c-0.2,0-0.6,0.1-0.5-0.2l0,0l0,0c-0.1-0.4-1-0.2-0.9-0.7c-0.1-0.1-0.3-0.2-0.4-0.2
	L38,41.4c-0.7-0.8-0.6-2.1-1.1-3c-0.1,0.6-0.3-0.5-0.2-0.7c0-0.1-0.2,0-0.2-0.2c0.5-1.7-1.5-3.5-1.6-5.3c-0.3-0.2-0.4-1-0.2-1.2
	c0.5-0.7-0.5-1-0.6-1.6C34.7,28.8,34.1,28.4,34.2,28L34.2,28z M35.7,34.3L35.7,34.3 M35.7,34.2l0.1,0.2
	C35.8,34.5,35.7,34.3,35.7,34.2L35.7,34.2z M42.8,24.9L42.8,24.9C42.8,24.8,42.8,25,42.8,24.9L42.8,24.9z M36.7,36L36.7,36L36.7,36
	L36.7,36z"/>
<path class="st1" d="M33.2,24.8L33.2,24.8L33.2,24.8z"/>
<path class="st1" d="M34.1,27.8L34.1,27.8L34.1,27.8z"/>
<path class="st1" d="M34.1,27.9C34.2,27.9,34.1,27.9,34.1,27.9L34.1,27.9L34.1,27.9L34.1,27.9z"/>
<polygon class="st1" points="34.1,27.8 34.1,27.9 34.1,27.9 34.1,27.9 34.1,27.9 34,27.8 34,27.8 "/>
<polygon class="st1" points="33.9,26.8 33.9,26.7 33.8,26.8 "/>
<path class="st1" d="M39.8,42L39.8,42L39.8,42z"/>
<polygon class="st1" points="42.5,43.9 42.5,43.8 42.5,43.8 "/>
<path class="st1" d="M32.3,91.2l-0.4,0.1H32c-0.1,0.1-0.3,0.1-0.4,0l0,0c-1.2-0.1-2.1,0-3.2,0c-2.1,0.6-4.4,0.3-6.5,0.3H22
	c-6.1,0.1-31.4,0.9-13.6-9.9C-5.4,82.2-0.8,96.5,13.2,94H13c2.7-0.1,5.6,0.2,8.3-0.2h-0.2c8-0.7,81,3.6,61.9-15.4
	c-0.6-0.3-1-0.8-1.8-1.3c0.4,0.1,0.6,0.2,0.8,0.3c-3.3-3.1-8.3-1.1-12.3-0.9c-20,2-41.2,1.9-61.3,4c0.3,0.1-0.1,0.3-0.2,0.4
	c2.4,0.3,4.8-0.2,7.3,0.1l-0.3,0.2c2.3,0.6,4.8,0.3,7.1,0c2.4,0.2,5.1,0.7,7.8-0.3c1.5-0.4,2.9,0.4,4.5,0.2c1.3-0.4,3.6,0.1,4.6-0.4
	c4.8-0.5,9.6,0.1,14.5-0.3c5.8-0.9,11.8-1.2,17.9-1.1c2.5,0.3,5.3-0.5,7.7-0.7c1.8,1.4,4.9,4.1,3.1,6.4c-2.1,1.7-4.7,2.5-7.2,3.4
	l0.3,0.1c-3.1,0.8-6.5,0.7-9.7,1.1c-8,0.9-23.1,1.4-33.4,1.6L32.3,91.2z M52.4,90.9c-0.1,0-0.2,0-0.3,0
	C52.2,90.6,53.4,90.8,52.4,90.9z M26.5,79.5L26.5,79.5C26.5,79.5,26.7,79.5,26.5,79.5z M58.3,90.2L58.3,90.2L58.3,90.2L58.3,90.2z"
	/>
<polygon class="st1" points="22,91.5 22,91.5 21.9,91.5 "/>
<path class="st1" d="M31.6,91.2h-0.2H31.6L31.6,91.2L31.6,91.2z"/>
<path class="st1" d="M32,91.2c0.1,0,0.2,0,0.3,0l0,0H32z"/>
<polygon class="st1" points="31.6,91.2 32,91.2 31.9,91.2 31.9,91.3 32,91.3 31.6,91.3 31.6,91.3 "/>
<path class="st1" d="M28.4,91.3l-0.1-0.1L28.4,91.3z"/>
<path class="st1" d="M82.2,85.1L82.2,85.1L82.2,85.1L82.2,85.1L82.2,85.1z"/>
<polygon class="st1" points="83.1,78.5 82.9,78.4 83,78.5 "/>
<path class="st1" d="M5.7,84.5L5.7,84.5L5.7,84.5L5.7,84.5L5.7,84.5C5.7,84.4,5.8,84.3,5.7,84.5C5.7,84.4,5.6,84.4,5.7,84.5
	c-0.3,0.1-0.3,0-0.4,0.1l0,0c-0.1,0,0.1-0.1,0.1-0.1s0,0,0.1,0s0.2-0.1,0-0.1c-0.1,0,0.2,0,0.1,0s-0.3,0-0.3,0c0.1,0,0.2,0,0.3,0
	c0,0-0.4,0-0.1,0c-0.1,0-0.1,0-0.2-0.1l0,0C5.2,84.4,5.7,84.5,5.7,84.5L5.7,84.5L5.7,84.5c0.3-0.1-0.3-0.7-0.3-0.9
	C6,83.3,3.5,81.5,4,83c-0.6-0.3-0.6,0.5-1.2,0.3c-0.9-0.1,0.1,0.7-0.1,1l0,0c0.1,0.1-0.1,0.2,0,0.4c0.4,0.1,0,0.5,0.3,0.4
	c0.1,0.1,0.2,0.2,0.3,0.3c-0.2,0.3-0.1,0.3,0.2,0.4c-0.2,0.8,0.4,1,0.5,1.3c0.3,0,0.7-0.1,0.6,0.3C5,87.2,4.8,87.6,5,87.5
	c0.2-0.2,0.3,0.1,0.5,0.4c0,0.2,0.7,0.5,0.7,0.5c0.5-0.8,0.5,0.6,1.3,0.3c0.2-0.1,0.1-0.1,0.1,0.2c0.4-0.2,0.6-0.9,0.5,0
	c0.3-0.4,0,0.8,0.3,0.2l0.1,0.1C8.8,89.1,9,88.4,9,89c0.3-0.1,0.5-0.2,0.8-0.6c0.1,0.3,0.2,0.2,0.5,0.2c0.1,0,0,0.4,0.2,0.2
	c0.1-0.4,0.3,0.3,0.6,0.2c0.3,0,0.4,0,0.5-0.4c0,0.3,0.3,0.3,0.4,0.3c0.1-0.1,0.5,0.1,0.5,0c0.6-0.5,0.1-0.1,0.7,0
	c0-0.2,0-1.2-0.2-0.7c-0.5-0.3-0.1-1.5-0.9-1c0-1-0.3-0.4-0.5,0.1c0-1-0.5-0.3-0.8-0.3c0.3-1.1-0.6-0.4-0.7-0.4
	c0-0.6-0.8,0.3-0.8-0.8c-0.7,1-0.5-0.1-0.8,0c-0.2-0.4-0.4-0.8-0.8-0.1C7.8,85.4,7.6,86,7.4,86c0-0.3-0.2-0.4-0.1-0.4
	c-0.1,0.2-0.2-0.4-0.2,0.1c-0.1,0.2,0-0.3,0-0.3C6.9,85.6,7.1,85,7,85c-0.1-0.3-0.5,0.4-0.4,0.2c0-0.2,0-0.2,0-0.3
	C5.5,85.4,6.1,84.2,5.7,84.5L5.7,84.5C6,84.2,5.4,84.7,5.7,84.5C5.8,84.4,5.7,84.5,5.7,84.5z M6.2,85.2C6.2,85.2,6.2,85.1,6.2,85.2
	C6.3,85.2,6.3,85.2,6.2,85.2z M12.2,88.8L12.2,88.8L12.2,88.8z M6.7,85L6.7,85L6.7,85L6.7,85z"/>
<path class="st1" d="M5.4,84.4L5.4,84.4L5.4,84.4z"/>
<polygon class="st1" points="5.7,84.5 5.7,84.5 5.7,84.5 "/>
<path class="st1" d="M5.7,84.5L5.7,84.5L5.7,84.5z"/>
<polygon class="st1" points="5.7,84.5 5.7,84.5 5.7,84.5 5.6,84.6 5.6,84.6 5.6,84.5 5.6,84.6 "/>
<polygon class="st1" points="5.7,84.5 5.7,84.4 5.6,84.5 "/>
<path class="st1" d="M8.3,85.4L8.3,85.4L8.3,85.4z"/>
<path class="st1" d="M8,88.5L8,88.5L8,88.5z"/>
<path class="st1" d="M77.6,83.3C77.6,83.6,77.6,83.2,77.6,83.3c-0.1,0.2,0,0-0.2,0.1c0,0.2,0,0.3,0,0.4c-0.1,0-0.1-0.2-0.2,0
	c0-0.2-0.2-0.1-0.2,0.1c0,0.1-0.1-0.2-0.1-0.1s0,0.3-0.1,0.2c-0.1-0.1-0.1-0.2-0.1-0.2c0,0.1,0,0.3,0,0.1c0,0.2,0,0.2-0.2,0.2
	c-0.1-0.2-0.1-0.4-0.2-0.6v0.1l-0.1-0.1c-0.1,0.3-0.1,0.4-0.2,0.7c-0.5-0.3-0.1,1.6,0.1,1.9c0.3-0.5,0.4-0.4-0.1,0
	c0.4-0.1,0.4,1.1,0.6,0.7c0.1-0.1,0-0.4,0.2-0.3c0.1,0.1,0.1,0,0.1-0.1s0.1,0.1,0.2,0c0-0.3,0.3,0.1,0.2-0.2c0-0.1,0.1,0.1,0.1,0
	c0-0.4,0.2,0.1,0.2,0.1c0.1-0.7,0.7,0.5,0.8,0c0.1,0.3,0.1,0.1,0.1,0.1c0,0.1,0.1,0.1,0.1,0c0.1-0.3,0.3-0.4,0.5-0.1
	c0-0.4,0.3,0.1,0.2-0.2c0-0.6,0.1,0.3,0.1-0.2c0.1,0.1,0.2,0.1,0.3,0.2c0,0.2,0.1,0,0.2,0.1c0-0.1,0.2,0,0.2-0.2
	c0.1,0.3,0.3,0,0.2,0.1c0-0.5,0.1-0.6,0.7-0.4c0.3,0.2,0.3-0.4,0.4,0c0.1-0.1-0.1-1.1,0.1-0.6c0.2,0,0.8,0.4,0.7,0
	c0.2-0.3,0.1-0.7,0.8-0.8c-0.2-0.2,0.2-0.1,0.3-0.1c0.1-0.1,0-0.3,0.2-0.2c-0.3-0.3,0-0.3,0-0.5c-0.3-0.3,0.2-0.1,0.1-0.6
	c0-0.1,0,0,0.1,0c0.4,0-0.4-0.4,0.3-0.3c-0.3-0.2,0.3-0.3,0.1-0.5l0,0V82l0,0c0.1,0,0-0.1-0.1-0.1c0.3-0.2-0.2-0.2-0.4-0.4
	c0.3-0.1,0.3-0.5,0.2-0.6c0-0.3,0-0.7-0.3-0.7c-0.3-0.4-0.2-1-1,0c0.8,0.1-1,0.9-0.5,1c-0.1,0.1-0.1,0.1,0,0.1
	c-0.2,0-0.4,0.1-0.6,0.2c0.3,0,1.2,0,0.4,0c0,0-0.2,0-0.2,0.1l0,0l0,0c-0.2,0,0.1,0,0.1,0c0.5,0.4-0.4,0.2-0.7,0.2l0,0
	c0.4,0.1,0.1,0.2,0.3,0.3c-0.4,0,0.4,0.3-0.2,0.2c0.3,0.1,0.2,0.1,0.2,0.2H81c0,0.1-0.4-0.1-0.5-0.2c0.1,0.1,0,0.1,0,0
	c0.1,0.2,0.2,0.4,0.2,0.6c-0.2-0.2-0.3-0.1-0.5-0.4l0.1,0.2c-0.2,0-0.3-0.2-0.3-0.2l0,0c-0.2-0.1-0.1,0.2-0.1,0.4
	c0,0.1,0.1,0.4,0.1,0.5c-0.2-0.4-0.1-0.1-0.3-0.3c0,0.2,0,0.1-0.1,0c0,0.1,0,0,0.1,0.2c0.2,0.2-0.2-0.1-0.1-0.1
	c-0.1-0.2-0.1,0-0.1,0.1c-0.1-0.3-0.2-0.4-0.3-0.3c-0.3,0.1,0,0.6-0.3,0.2c0,0.1,0,0.5-0.2,0.3c0,0.4-0.4-0.3-0.6-0.4
	c0,0.1,0,0.3-0.1,0.4c-0.1-0.5,0,0.1-0.2,0c-0.1-0.1,0,0,0,0L77.6,83.3z M78.7,83.3c0,0,0-0.1,0-0.2C78.8,83.3,78.8,83.3,78.7,83.3
	L78.7,83.3z M83.6,80.5L83.6,80.5L83.6,80.5L83.6,80.5z M78.9,82.9L78.9,82.9L78.9,82.9L78.9,82.9z"/>
<path class="st1" d="M77.1,83.6L77.1,83.6L77.1,83.6z"/>
<polygon class="st1" points="77.6,83.3 77.6,83.3 77.6,83.3 77.6,83.4 "/>
<path class="st1" d="M77.6,83.3L77.6,83.3L77.6,83.3z"/>
<polygon class="st1" points="77.6,83.4 77.6,83.4 77.6,83.3 77.6,83.4 77.6,83.4 77.6,83.4 77.6,83.4 77.6,83.3 "/>
<path class="st1" d="M77.4,83.4L77.4,83.4L77.4,83.4z"/>
<path class="st1" d="M80,82.3L80,82.3L80,82.3z"/>
<path class="st1" d="M82,84.7L82,84.7L82,84.7z"/>
<path class="st2" d="M9.5,83.6C7.4,82.4,7.2,53.4,41,53.2s38.7,24.6,37.9,26.5s-13.4,5.5-34,5.6S14.2,86.4,9.5,83.6z"/>
<path class="st0" d="M18.1,67.1c-0.2-1.7,1.3-4.1,5-6.3s7.1-4,7.6-3.7s2.5,2.8,2.1,3.3s-4.5,1.8-6.3,3.9c-1.3,1.6-2.5,3.3-3.5,5.1
	C22.6,70.2,18.3,69.2,18.1,67.1z"/>
<path class="st3" d="M57.4,84.8l-4.5-6.1l-4,1l-3.6-4.8L37,78.2l0.7,7.2c2.3,0,4.7,0,7.3,0C49.5,85.3,53.7,85.1,57.4,84.8z"/>
<path class="st4" d="M78.9,79.7c0.1-0.8,0.1-1.7-0.2-2.5h-7.2l4.3,4.3C77.6,80.8,78.7,80.2,78.9,79.7z"/>
<path class="st4" d="M53.9,62.5l5.3,2.8L55,72.1l13,1.5l2-11c-3.3-2.9-7.1-5.2-11.3-6.7L53.9,62.5z"/>
<path class="st3" d="M41,54.9c-1.7,0.2-4.5-0.5-4.5-2.6s2.1-4.4,4-4.4s4.2,3.2,4.3,4.3S43.7,54.6,41,54.9z"/>
</svg>
