<?xml version="1.0" encoding="utf-8"?>
<svg version="1.1" id="Layer_1" xmlns="http://www.w3.org/2000/svg" xmlns:xlink="http://www.w3.org/1999/xlink" x="0px" y="0px"
	 viewBox="0 0 86 96.8" style="enable-background:new 0 0 86 96.8;" xml:space="preserve">
<path style="fill:#003EC9;" d="M24.6,41.6c0,0,11.1,0.1,26.3,0s29.9,0,29.9,1.7c0,3.3-17.5,15.8-17.5,15.8l-41-0.9
	C22.3,58.1,21.2,41.5,24.6,41.6z"/>
<path style="fill:#FC736C;" d="M66.3,54.2c0,0,13.9-12.2,14.5-10.9s-0.1,20.8,0,26s0.9,16.2,0.2,16.8s-12,9.4-12.8,9.5
	S66.3,54.2,66.3,54.2z"/>
<path style="fill:#FFD03B;" d="M81.3,81.2c0-0.5,0-1.1,0-1.6c-2.7-1.8-8-5.1-8.3-3.8c-0.5,1.7,1.6,4.6,2.7,6.3s-2.6,1-2.9,2.6
	s3.2,3.2,2.1,4c-0.7,0.8-1,1.9-0.9,3c1.8-1.3,3.6-2.7,5-3.8c-1.5-1-3.6-2.6-2.5-2.7c1.6-0.1,2.8-0.3,2.8-1.5s-2-3.5-1.8-4.1
	C77.5,79.2,79.7,80.3,81.3,81.2z"/>
<path style="fill:#FFD03B;" d="M66.8,69.6c1.6-0.9,4.7-2.3,5.1-1.6c0.5,1.1,4.2,6.9,6.1,6.8c1-0.1,2.1-0.3,3-0.7
	c0-0.6,0-1.1-0.1-1.6c-0.6,0.3-1.4,0.3-2,0c-4.6-1.9-1.7-5.6-3.9-8.6c-1.6-2.2-6.2-1.9-8.4-1.6C66.6,64.5,66.7,67,66.8,69.6z"/>
<path style="fill:#FFD03B;" d="M72.7,51.5c0.5,1.1,0.8,4.9,1.8,6.5c1.7,2,3.9,3.5,6.4,4.3c0-0.9,0-1.9,0.1-2.8
	c-2.1-0.5-3.7-2.2-4-4.3c-0.7-4.8,0.3-6,0-7.7c-0.1-0.5-0.3-1.1-0.6-1.6c-1.6,1.2-3.3,2.6-4.9,4C71.9,50.4,72.3,51,72.7,51.5z"/>
<path style="fill:#FFD03B;" d="M10.9,52.7c0,0,10.1-11.1,13.7-11.1c0.9,0-1.4,54-1.4,54S10.5,57.8,10.9,52.7z"/>
<line style="fill:none;" x1="47" y1="55" x2="34.3" y2="0.1"/>
<path style="fill:#132645;" d="M42.3,41.8l0.1,0.1l0,0c0.1,0,0.1,0.1,0,0.1l0,0c0.1,0.2-0.1,0.3,0,0.4s0.2,0.1,0.2,0.2s0,0.2,0,0.4
	l0,0c0.2,0.1,0.3,0.2,0.3,0.4c0,0,0.1,0,0.1,0.1c0,0.1,0,0.1,0,0.2c0,0.1,0,0.3,0,0.4s-0.1,0.2,0,0.3s0.1,0.2,0.2,0.3
	c0,0.1,0,0.2,0,0.2l0,0c0,0.2,0,0.5,0.1,0.7c0,0.2,0.1,0.5,0.2,0.6c0,0.2-0.1,0.3,0,0.5s0.3,0.3,0.4,0.5c-0.1,0.1-0.1,0.3-0.1,0.4
	c0,0.1,0,0.3,0,0.4c0,0.1,0,0.2,0.1,0.2c0,0,0,0,0,0c0.2,0.1,0.2,0.1,0.2,0.3v0.2c0.1,0.1,0.2,0.2,0.3,0.2c0.1,0.1,0.1,0.3,0.1,0.4
	c0,0.2,0,0.4,0.1,0.5c0,0.1,0.1,0.2,0.1,0.2c0,0.1-0.1,0.2-0.2,0.2c-0.2,0.1-0.2,0.3-0.2,0.4c0,0.1,0,0.2,0.1,0.3c0,0,0,0.1,0,0.2
	l0.1,0.2c0,0.1,0,0.2,0,0.3c0.1,0.2,0.2,0.3,0.3,0.4s0.2,0.2,0.2,0.4s0.1,0.2,0.1,0.2s0.1,0.2,0.2,0.2s0.2,0.3,0.2,0.4
	s-0.1,0.2,0,0.4s0.1,0.3,0.1,0.5s0.3,0.2,0.3,0.4c0,0,0,0.1,0.1,0.1l0.7,0.1c0.2-0.2,0.4-0.3,0.5-0.6c0.1-0.2,0.2-0.5,0.1-0.7
	c0-0.1,0-0.1,0-0.2l0.1-0.2c0-0.1-0.1-0.3-0.1-0.4c-0.1-0.3-0.3-0.6-0.6-0.9c-0.1-0.1-0.1-0.1,0-0.3c0.1-0.2,0.1-0.3,0.3-0.4L47,51
	c0.1-0.2,0.1-0.5,0-0.7c-0.1-0.2-0.1-0.5,0-0.7c0.1,0,0.2,0,0.2,0s0.2-0.3,0.2-0.5c-0.1-0.2-0.2-0.4-0.3-0.5
	c-0.1-0.1-0.2-0.2-0.2-0.4c0-0.1-0.1-0.2-0.1-0.2c-0.2-0.1-0.3-0.4-0.2-0.6c0-0.1,0-0.2-0.1-0.3V47l0,0c0-0.1-0.2-0.2-0.1-0.3
	c0,0,0-0.1,0-0.1c0-0.2-0.1-0.5-0.1-0.7c0,0,0,0,0-0.1c-0.2-0.1-0.3-0.4-0.2-0.6c0-0.2,0-0.4-0.1-0.6l-0.2-0.1l0,0l0,0
	c0-0.1-0.1-0.2-0.1-0.4c0-0.1,0-0.1-0.1-0.2c-0.1-0.1-0.1-0.2-0.1-0.3c0-0.1-0.2-0.2-0.2-0.3s0.2-0.2,0.1-0.3s0.1-0.2,0.1-0.3
	L45,42.1c0-0.1-0.1-0.2-0.1-0.2c0-0.2,0-0.3,0-0.5c0-0.1,0-0.2,0.1-0.3c0.1-0.1,0.1-0.3,0-0.5c0-0.1,0-0.2,0-0.3c0-0.1,0-0.3,0-0.4
	c-0.1-0.3-0.2-0.6-0.2-0.9c0-0.1-0.1-0.2-0.1-0.3l-0.1-0.2c0.2-0.2,0.2-0.2,0-0.4l-0.1-0.2c0,0,0-0.1,0-0.1c0-0.1,0.1-0.1,0-0.2
	s0-0.1-0.1-0.1c-0.2-0.1-0.3-0.3-0.3-0.5c0-0.3-0.1-0.5-0.3-0.7c-0.1-0.2-0.1-0.4-0.2-0.6c0.1-0.2,0.1-0.4,0.2-0.6
	c-0.2-0.1-0.3-0.4-0.2-0.6c0-0.1,0.1-0.2,0-0.3s0-0.2-0.2-0.3s-0.2-0.3-0.3-0.5c0,0,0-0.1,0-0.1c0,0,0.1,0,0.1-0.1
	c0.1-0.1,0.1-0.3,0-0.4c0,0-0.1-0.1-0.1-0.1c0-0.2,0-0.3,0-0.5c0-0.2,0-0.3,0-0.5l-0.1-0.1c-0.1,0-0.1-0.1,0-0.2c0,0,0-0.1,0-0.1
	c0-0.3-0.2-0.6-0.1-0.9c-0.2-0.3-0.1-0.6-0.3-0.9c0-0.1-0.1-0.2-0.1-0.2c0,0,0-0.1,0-0.1c0.1-0.3,0.1-0.6,0-0.9c0-0.1,0-0.1,0-0.2
	c0-0.1-0.1-0.2-0.2-0.2h-0.1c0-0.1-0.1-0.3-0.2-0.4c-0.1-0.1-0.2-0.3-0.3-0.4c0-0.2,0-0.4,0-0.6c-0.1-0.5-0.1-0.9,0-1.4
	c0.1-0.1,0-0.3,0-0.5s0-0.2-0.1-0.3s-0.2-0.3-0.2-0.5s0-0.2,0.1-0.3c0,0,0,0,0.1-0.1c-0.1-0.1-0.1-0.3-0.2-0.4
	c-0.3-0.1-0.5-0.3-0.6-0.5l0,0c-0.2-0.1-0.2-0.3-0.2-0.6l0.2,0.2l0.2-0.5l-0.2-0.2c0-0.2,0.1-0.5,0.2-0.7c0.1-0.3,0.1-0.3-0.1-0.5
	c0,0,0,0,0-0.1c0-0.1,0-0.2,0-0.3c0,0,0-0.1,0-0.1c-0.2-0.2-0.2-0.4-0.4-0.6c-0.1-0.1-0.1-0.2-0.2-0.3c0-0.1-0.1-0.3-0.1-0.4
	s-0.1,0-0.1,0S40,18.6,40,18.6c0-0.1,0-0.1,0.1-0.2c0,0,0,0,0,0c0.2-0.1,0.1-0.2,0.1-0.4c0-0.1-0.1-0.3-0.1-0.4
	c0-0.1-0.1-0.2-0.2-0.3c-0.1-0.1,0-0.2,0-0.3c-0.2-0.1-0.3-0.3-0.4-0.5c0-0.1-0.1-0.3-0.1-0.4c0-0.2-0.1-0.4-0.2-0.5
	c-0.2-0.1-0.3-0.3-0.4-0.5c0-0.2,0-0.4,0-0.5c0-0.2-0.1-0.4-0.1-0.6c-0.1-0.3-0.2-0.5-0.2-0.8c0-0.1,0-0.2,0-0.3
	c0.1-0.1,0.1-0.3,0-0.4c0-0.1-0.1-0.2-0.2-0.3c0-0.1-0.1-0.1-0.1-0.2c0-0.1-0.1-0.1-0.1-0.2s0.1-0.3,0.2-0.5
	c-0.1-0.2-0.3-0.4-0.2-0.7C38,10.5,38,10.3,38,10c0-0.2,0-0.3-0.1-0.4c0,0-0.1-0.1,0-0.1c0-0.1,0-0.3-0.1-0.4c0-0.1,0-0.1,0-0.2
	c0-0.1,0-0.2,0-0.2c0-0.1-0.1-0.1-0.2-0.2c0-0.2,0.1-0.3,0-0.5s-0.3-0.2-0.3-0.4S37.1,7.5,37,7.3c0.1-0.2,0.2-0.3,0.2-0.5
	c0-0.2-0.2-0.4-0.2-0.6S37,6.1,37,6c0-0.3-0.1-0.5-0.2-0.8c-0.1-0.1-0.1-0.2-0.2-0.4c0-0.3,0-0.5,0-0.8l-0.2-0.4
	c0-0.2,0.1-0.5,0-0.7c0,0,0-0.1,0-0.1c0-0.3-0.1-0.6-0.3-0.8c-0.1-0.1-0.2-0.2-0.2-0.3c0-0.1,0-0.2,0-0.4c0-0.1,0.1-0.2,0.1-0.2
	c0,0,0-0.1,0-0.1c0-0.2,0-0.3-0.1-0.5c0-0.1-0.1-0.1-0.1-0.2c0-0.1,0-0.2,0-0.3L35.2,0c-0.1,0.1-0.3,0-0.4,0
	c-0.1,0.1-0.1,0.3-0.1,0.4c0,0,0,0.1,0,0.1l0.2,0.3c0,0.1-0.1,0.2,0,0.3c0,0.1,0,0.3,0,0.4c0,0.2-0.1,0.5,0,0.7c0,0,0,0.1,0,0.1
	l-0.2-0.1c0,0.1-0.1,0.1-0.1,0.2c-0.1,0.2-0.2,0.4-0.2,0.6c0,0.4,0.1,0.8,0.2,1.1c0,0.1,0.1,0.2,0.2,0.3c-0.1,0.3-0.1,0.3,0.1,0.5
	c-0.3,0.2-0.5,0.5-0.5,0.8c0.1,0.1,0.2,0.2,0.3,0.3s0.1,0.3,0.2,0.5l0.3,0.2c0.1,0.1,0.2,0.1,0.2,0.3c0,0.1-0.1,0.2-0.2,0.2L35,7.5
	c0.1,0.1,0.1,0.3,0.1,0.5c0,0.1,0,0.3,0,0.4c0,0.1,0.1,0.2,0.1,0.3c0,0.1,0.1,0.3,0.1,0.4c0,0.1,0,0.2,0,0.3c0.1,0.1,0,0.2,0,0.4
	h0.2c0,0.5,0,0.5,0.4,0.7l0,0c0,0.3,0,0.5,0.1,0.8c-0.1,0.2-0.2,0.4-0.3,0.6c0,0-0.1,0.1,0,0.1c0,0.2,0,0.5-0.1,0.7v0.1
	c0.2,0.1,0.3,0.3,0.4,0.5c0,0,0.1,0.1,0.1,0.1l0.1,0.8l0.2,0.2c0,0.3-0.1,0.5,0.1,0.7c0.1,0,0.2-0.1,0.3,0.1s-0.1,0.3-0.2,0.5
	c0,0.1,0,0.2,0,0.3c0.1,0.1,0.2,0.2,0.3,0.4c0,0.2,0,0.4,0.1,0.6c0,0.3,0.1,0.4,0.2,0.5c0,0.1,0,0.3,0,0.4c0,0.1,0.1,0.3,0.2,0.4
	c-0.1,0.4-0.1,0.8,0,1.2c0,0.1,0,0.2,0,0.3s-0.1,0.1-0.1,0.3c0.2,0.1,0.1,0.2,0.1,0.2s0.2,0.1,0.3,0.2c0.1,0.3,0.3,0.5,0.5,0.8
	s0.2,0.4,0.2,0.5c0,0.1-0.1,0.1-0.1,0.2c-0.1,0.2-0.1,0.4,0,0.5c0.1,0.2,0,0.4,0,0.6S38,23.6,38,23.7s0,0.1,0,0.1l0.2,0.2
	c-0.1,0.3,0.1,0.6,0.1,0.9c-0.2,0.2-0.2,0.2-0.1,0.5c0,0.1,0.1,0.2,0.1,0.2c0,0,0,0.1,0,0.1l0,0c0,0,0,0.1,0,0.1
	c0.1,0.2,0.2,0.5,0.2,0.8c0,0.3,0.1,0.5,0.3,0.7c0.2,0.1,0.3,0.3,0.4,0.5c0.1,0.1,0,0.1,0,0.2l0.3,0.4l0.2-0.1l0.1,0.2l0.2,0.2
	c-0.2,0.3-0.2,0.6-0.1,0.9c0.1,0.2,0.1,0.4,0,0.5c0,0,0,0.1,0,0.1c0.1,0.1,0.1,0.2,0.2,0.3s0,0.3,0,0.5c0,0.1,0,0.2,0.1,0.3
	c0-0.1,0-0.2,0.1-0.2c0.1,0.1,0.1,0.3,0,0.4c0,0-0.1,0.1,0,0.2s0,0.3,0,0.4s0.2,0.1,0.2,0.2c-0.2,0.2-0.2,0.2-0.2,0.6
	c0,0.1,0,0.2,0,0.3c0,0.3,0.1,0.6,0.3,0.8c0.1,0.1,0.2,0.3,0.3,0.4c0.1,0.1,0.1,0.2,0.1,0.3c0,0.2,0,0.4,0,0.5
	c0.1,0.2,0,0.3-0.1,0.5c0,0,0.1,0.1,0.1,0.1c0.1,0.1,0.2,0.3,0.2,0.5v0.1c0,0,0.1,0.2,0.2,0.3c0.1,0.2,0.2,0.4,0.2,0.6
	c0,0.1,0,0.2,0,0.2c0.1,0.1,0.3,0.2,0.2,0.5c0,0,0,0.1,0,0.1c0.1,0.2,0.1,0.5-0.1,0.6l-0.2,0.5c0,0,0,0.1,0,0.1
	c0.1,0.2,0.2,0.3,0.4,0.4C42,40,42,40,42,40.1c0,0.1,0.1,0.2,0.2,0.3c0,0,0,0.1,0,0.1c-0.1,0.1-0.1,0.3-0.1,0.4c0,0,0,0,0.1,0.1
	c0,0.2,0.2,0.4,0.2,0.6C42.4,41.6,42.4,41.7,42.3,41.8L42.3,41.8z M41.2,35.5C41.2,35.6,41.2,35.6,41.2,35.5 M41.1,35.6
	c0-0.1-0.1-0.1-0.1-0.2C41.1,35.3,41.1,35.5,41.1,35.6L41.1,35.6z M36.6,5.5L36.6,5.5L36.6,5.5L36.6,5.5z M40.4,33.8L40.4,33.8
	L40.4,33.8L40.4,33.8z"/>
<path style="fill:#132645;" d="M43.2,44.9L43.2,44.9L43.2,44.9z"/>
<path style="fill:#132645;" d="M42.4,42L42.4,42L42.4,42L42.4,42z"/>
<path style="fill:#132645;" d="M42.4,41.8C42.3,41.8,42.3,41.8,42.4,41.8L42.4,41.8L42.4,41.8L42.4,41.8z"/>
<path style="fill:#132645;" d="M42.4,42v-0.1l0,0h0.1l0,0L42.4,42L42.4,42L42.4,42L42.4,42z"/>
<path style="fill:#132645;" d="M42.6,42.9L42.6,42.9L42.6,42.9L42.6,42.9z"/>
<path style="fill:#132645;" d="M38.3,25.8L38.3,25.8L38.3,25.8L38.3,25.8z"/>
<path style="fill:#132645;" d="M40.8,22.7L40.8,22.7L40.8,22.7z"/>
<path style="fill:#FFFFFF;" d="M24.8,57.7l-12-20.9c0,0-7.5,1.3-10.2-3.1s1-13.1,1-13.1l5.6,8.7l7-5.6l-5.6-8.3c0,0,9.9-0.4,12,5
	s0.8,13,0.8,13l14,24.3H24.8z"/>
<path style="fill:#132645;" d="M0.9,33.7L1.1,34l0,0c0.1,0.1,0.2,0.2,0.2,0.3v0c0.3,0.5,0.3,0.8,0.7,1.2c0.2,0.2,0.5,0.2,0.6,0.5
	c0.2,0.3,0.5,0.6,0.9,0.8l0,0c0.5,0.1,1,0.3,1.4,0.5c0.1,0,0.2,0,0.3,0c0.2,0.1,0.4,0.2,0.6,0.2C6.2,37.7,6.6,37.9,7,38
	c0.3,0,0.4,0.2,0.8,0.3l1,0.1c0.2,0,0.4,0,0.6,0.1l0,0c0.6,0.1,1.3,0.1,1.9,0.1c0.2,0,0.4,0,0.5,0H12H12c0.1,0,0.2-0.1,0.3-0.1l0,0
	c0.1,0.1,0,0.3,0.1,0.4s0.1,0.1,0.2,0.2l0.2,0.3c0.2,0.2,0.3,0.4,0.5,0.6c0.1,0.3,0.2,0.7,0.4,1c0.2,0.3,0.3,0.6,0.4,0.9
	s0.2,0.4,0.4,0.5s0.3,0.2,0.5,0.7c0.1,0.2,0.1,0.4,0.2,0.5c0.2,0.2,0.4,0.4,0.6,0.6c0.2,0.3,0.4,0.7,0.6,1c0.2,0.4,0.4,0.8,0.7,1.2
	c0.1,0.2,0.3,0.4,0.4,0.6c0.1,0.2,0.1,0.4,0.1,0.6c-0.1,0.2,0.1,0.6,0.2,1c0.1,0.3,0.2,0.5,0.4,0.7c0.1,0.1,0.1,0.3,0.2,0.4
	c0.1,0.1,0.2,0.3,0.4,0.4s0.2,0.4,0.3,0.7l0.8,1c0.3,0.3,0.5,0.6,0.7,0.9c0.1,0.2,0.3,0.4,0.4,0.6c0.1,0.2,0.3,0.3,0.4,0.5l0.7,1
	c0.1,0.3,0.2,0.6,0.4,0.8c0.2,0.4,0.5,0.8,0.7,1.2c0.2,0.1,0.5,0.4,0.8,0.9c0.1,0.1,0.1,0.2,0.2,0.3l0.9,0.2c-0.1-0.5,0-0.8-0.1-1.4
	c-0.1-0.6-0.3-1.2-0.6-1.7c-0.1-0.1-0.2-0.3-0.2-0.4c0-0.2,0-0.3,0-0.4c-0.2-0.3-0.4-0.6-0.6-0.8c-0.5-0.8-1.1-1.6-1.8-2.3
	c-0.2-0.2-0.2-0.2-0.3-0.8c-0.1-0.3-0.1-0.6-0.1-0.9l-0.6-0.9c-0.1-0.6-0.4-1.1-0.8-1.6c-0.4-0.5-0.6-1.1-0.7-1.7
	c0.1,0,0.2,0,0.2-0.1c0-0.4-0.1-0.8-0.3-1.2c-0.3-0.4-0.5-0.8-0.9-1.2c-0.2-0.3-0.5-0.5-0.6-0.9c-0.1-0.2-0.2-0.4-0.4-0.6
	c-0.4-0.4-0.7-0.9-0.9-1.4c-0.1-0.2-0.2-0.4-0.4-0.6l0.1,0.1v-0.1c-0.2-0.2-0.3-0.4-0.4-0.7c0-0.1-0.1-0.2-0.1-0.3l-1.1-2
	c0,0-0.1-0.2-0.2-0.2s-0.3-0.3-0.4-0.5c-0.6,0.2-1.3,0.3-1.9,0.3c-0.4,0-0.9,0-1.4,0L9.8,36H10l0,0l0,0c-0.3,0-0.6,0-0.9,0
	c-0.2,0-0.3,0-0.5,0c-0.3,0-0.5,0-0.8-0.1c-0.3-0.1-0.5,0-0.9-0.1c-0.1-0.2-0.4-0.4-0.6-0.4c-0.4-0.1-0.4-0.3-0.5-0.4
	c-0.4-0.1-0.9-0.3-1.3-0.6C4.3,34.4,4.2,34.2,4,34c-0.2-0.2-0.3-0.5-0.5-0.8c-0.1-0.2-0.1-0.3-0.1-0.5c0-0.3-0.1-0.6-0.2-0.9
	c-0.1-0.2-0.1-0.4-0.1-0.6c0-0.3,0-0.5,0-0.8c0-0.4-0.1-0.7,0-1.1c0-0.4,0-0.7,0.1-1.1c0-0.2,0-0.5,0-0.7s0-0.4,0-0.5
	c0.2-0.3,0.3-0.6,0.3-0.9c0-0.2,0-0.3,0-0.5c0-0.1,0-0.2,0-0.2c0-0.1,0.1-0.1,0.1-0.2c0-0.1,0.1-0.2,0.1-0.2c0,0,0,0,0-0.1
	c-0.1-0.2-0.1-0.4,0-0.5c0.1-0.3,0.2-0.6,0.2-0.8c0-0.1,0-0.2,0-0.2c0,0,0.1,0.1,0.1,0.1c0,0.1,0.1,0.2,0.2,0.3
	c0,0.4,0.2,0.5,0.2,0.8c0.1,0,0.1,0,0.2,0c0,0,0.1,0.1,0.1,0.1c0,0,0,0,0,0.1l0.1,0.2c0.1,0.2,0.1,0.5,0.3,0.6s0.3,0.5,0.5,0.6
	c0.4,0.3,0.7,0.6,0.9,1c0,0.1,0.1,0.1,0.1,0.2s0,0.1,0,0.2c0,0.2,0.1,0.3,0.2,0.5l0.2,0.2c0.1,0.1,0.2,0.3,0.3,0.5s0.3,0.4,0.4,0.5
	c0.4,0.7,0.7,1.3,1.1,2l0.1,0.2c0.5-0.4,1-0.8,1.5-1.1l0.4-0.3c0.2-0.2,0.4-0.4,0.6-0.5c0.2-0.1,0.3-0.2,0.5-0.3
	c0.7-0.5,1.3-1.1,1.9-1.4c0.5-0.5,1.2-1,1.8-1.5l0.3-0.2l0.4-0.4c0.2-0.1,0.4-0.3,0.5-0.3c0.6-0.4,1.3-0.8,1.8-1.3
	c-0.3-0.5-0.7-1-1.1-1.5c-0.2-0.2-0.4-0.5-0.5-0.8c-0.1-0.2-0.2-0.3-0.4-0.5c-0.1,0-0.1-0.1-0.2-0.1L16.1,21
	c-0.2-0.3-0.4-0.6-0.6-0.8l-0.9-1c-0.2-0.5-0.5-0.9-0.8-1.4c-0.3-0.4-0.3-0.6-0.1-0.7s0.2,0.1,0.2,0H14c0,0,0.1-0.1,0.2-0.1
	c0.1,0,0.2,0,0.2,0.1c0,0,0,0.1,0,0.1h0.1h0.2l0.6,0.1c0.5-0.1,1.1-0.1,1.7,0l0,0c0.5,0,1,0.2,1.4,0.5l-0.6-0.1
	c0.3,0.2,0.5,0.4,0.8,0.6l0.5,0.1c0.3,0.3,0.6,0.6,0.8,1c0.1,0.3,0.4,0.6,0.7,0.8c0,0,0.1,0.1,0.1,0.1c0.1,0.2,0.1,0.4,0.2,0.5
	l0.1,0.2c0.2,0.4,0.5,0.9,0.6,1.3c0.1,0.2,0.2,0.5,0.3,0.8c0.1,0.3,0.2,0.6,0.2,0.9c0.1,0,0.1,0,0.1,0.1c0.1,0.1,0.1,0.3,0.2,0.4
	c0,0.2,0,0.4-0.1,0.4s-0.1,0.5-0.1,0.9s0.1,0.6,0,1c0,0.2,0,0.5,0.1,0.7c0.1,0.3,0,0.4,0,0.7c0.2,0.4,0.2,0.9,0.2,1.3
	c0,0.3,0,0.7-0.1,1c-0.1,0.4-0.1,0.9,0,1.3c0,0.2,0.1,0.5,0.1,0.7c0,0.3,0,0.6,0,0.9l0.1,0.1c0.1,0.3,0.3,0.7,0.4,0.9
	s0.2,0.4,0.2,0.6c0.2,0.5,0.5,0.9,0.8,1.3c0.4,0.6,0.8,1.3,1.1,1.9c0.1,0.2,0.2,0.5,0.3,0.7c0,0.3,0.2,0.6,0.4,0.8
	c0.2,0.2,0.3,0.5,0.5,0.7c0.1,0.1,0.2,0.3,0.4,0.4c0.2,0.1,0.3,0.3,0.4,0.5c0.1,0.3,0.2,0.8,0.3,1.2c0.4,0.5,0.8,1,1,1.6
	c0.3,0.5,0.6,1,0.8,1.6c0.1,0.3,0.3,0.6,0.6,0.9c0.1,0.1,0.1,0.2,0.2,0.3c0.1,0.3,0.3,0.6,0.5,0.9c0.1,0.1,0.1,0.3,0.2,0.4
	c0.1,0.2,0.2,0.4,0.3,0.5c0.1,0.2,0.3,0.3,0.4,0.5c0.1,0.4,0.3,0.7,0.5,1.1c0.3,0.2,0.5,0.5,0.8,0.8c0.3,0.4,0.5,0.4,0.8,0.8
	c0.1,0.4,0.2,0.8,0.4,1.2c0.3,0.5,0.6,0.9,0.9,1.3c0,0.2,0.1,0.3,0.1,0.5c0.2,0.4,0.2,0.4,0.3,0.5c0.1,0.1,0.2,0.3,0.3,0.4
	c0.1,0.1,0.3,0.3,0.3,0.4c0,0.1,0.1,0.2,0.1,0.2c-0.2,0-0.5,0-0.7-0.1l-0.4,0.2c-0.1,0-0.3-0.1-0.4-0.1c-0.3,0-0.6,0-0.9,0
	c-0.1,0-0.2,0-0.3,0c-0.7-0.1-1.4-0.1-2.1,0.1c-0.3,0.1-0.7,0.2-1,0.2c-0.3,0-0.6,0-0.9-0.1c-0.2,0-0.4-0.1-0.5-0.2L28,56.5
	c-0.4-0.1-0.8-0.1-1.3,0c-0.2,0-0.4,0-0.6,0c-0.2,0-0.5,0-0.7-0.1L25,56.8c0.3,0.1-0.1,0.3-0.2,0.4c0.3,0.1,0.6,0.2,0.9,0.2H26
	l0.8-0.2c0.3,0.1,0.5,0.1,0.8,0.1c0.3,0,0.7,0,1,0.1c0.6,0.1,1.1,0.2,1.8,0.2c0.1,0,0.2,0,0.3,0.1l-0.3,0.2c0.1,0,0.2,0.1,0.4,0.2
	c0.5,0.2,1,0.2,1.5,0.3h1.5h0.9c0.3,0,0.7,0,1,0l1.2,0c0.5,0.1,1.1,0.1,1.6,0.1L38.3,58c0.2-0.1,0.3-0.3,0.2-0.5
	c-0.1-0.5-0.3-0.9-0.5-1.4c-0.4-0.5-0.8-1.1-1.1-1.5c-0.1-0.1-0.2-0.3-0.3-0.4L36.4,54c-0.1-0.2-0.2-0.4-0.4-0.5l-0.6-0.5
	c-0.2-0.2-0.4-0.4-0.5-0.6c-0.2-0.3-0.1-0.4,0-0.5c0-0.1,0-0.2,0-0.3c-0.2-0.3-0.4-0.6-0.5-1l-0.4-1c-0.2-0.3-0.3-0.5-0.5-0.8
	s-0.3-0.6-0.5-0.9s-0.3-0.6-0.4-0.8s-0.2-0.6-0.4-0.8H32h-0.1c-0.2-0.7-0.6-1.2-1.2-1.6l-0.1-0.1c-0.3-0.6-0.6-1.3-1-1.8
	c-0.1-0.5-0.2-0.9-0.3-1.4c0-0.1,0-0.2-0.1-0.3c-0.3-0.5-0.5-1.1-0.7-1.7l-0.1-0.2c-0.4-0.3-0.7-0.7-1-1.1c-0.1-0.1-0.2-0.2-0.2-0.3
	c-0.3-0.7-0.7-1.3-1-1.9l-0.5-0.6c-0.2-0.6-0.5-1.2-0.9-1.7c-0.1-0.1-0.1,0.1-0.4-0.2c0-0.1,0-0.2,0-0.3c0.1-0.1,0.1-0.2,0.1-0.2
	l0-0.1l0-0.2l0.1-0.4c0-0.4-0.1-0.8-0.1-1.2c0.1-0.5,0.1-1.1,0.1-1.6c0.1-0.5,0-1-0.1-1.6c0-0.4,0.1-0.7,0.1-1.1s-0.1-0.8-0.1-1.3
	c0.1-1.1,0-2.1-0.1-3.2c0-0.3-0.1-0.5-0.1-0.8s0-0.4,0-0.7c-0.2-0.2-0.3-0.5-0.3-0.7c-0.1-0.2-0.4-0.5-0.6-0.8s-0.3-0.4-0.4-0.6
	c-0.1-0.2-0.3-0.3-0.5-0.5l-0.5-0.5l-0.5-0.4c-0.4-0.4-0.9-0.7-1.5-1c-0.1-0.1-0.1-0.2-0.2-0.3c-0.2-0.2-0.4-0.3-0.6-0.4
	c-0.2-0.1-0.5-0.2-0.7-0.3c-0.6-0.2-0.9-0.4-1.5-0.6s-0.2-0.2-0.5-0.3l-0.3-0.1h-0.8c-0.2-0.1-0.4-0.1-0.6-0.2
	c-0.3-0.1-0.7-0.1-1-0.1c-0.7-0.1-1.4-0.1-2-0.1c-0.7-0.2-1.4-0.3-2.1-0.2l-1,0.1c-0.2,0-0.4,0-0.6-0.1h0.1c-0.2,0-0.5,0-0.7,0H7.4
	l0,0l0.1,0.2l0.2,0.4l0.4,0.8c0.3,0.5,0.5,1,0.8,1.5c0.6,1,1.3,2,2.1,2.9l0.2,0.2l0.1,0.1l0.3,0.3l0.5,0.6c0.2,0.2,0.1,0.3,0.2,0.5
	l0.9,0.9v-0.3c0.2,0.2,0.3,0.4,0.4,0.5l0.4,0.5c0,0.1,0,0.1,0,0.2c0,0,0,0.1,0,0.1v0.2c0,0.1,0.1,0.2,0.1,0.3l-0.1,0.1
	c-0.1,0.1-0.3,0.2-0.4,0.2l0,0l-0.1,0.1c-0.2,0.2-0.4,0.4-0.7,0.7l-1.1,0.7c-0.2,0.1-0.4,0.3-0.5,0.5c0.1,0,0.4-0.3,0.5-0.2
	c-0.3,0.3-0.6,0.5-0.9,0.6c-0.1,0-0.3,0.1-0.4,0.2c-0.3,0.3-0.5,0.3-0.8,0.5c-0.1,0.1,0,0.2-0.1,0.3c-0.2-0.2-0.2-0.2-0.2-0.3l0,0
	c0,0,0-0.1,0-0.1c0-0.1,0-0.1,0-0.1s0,0,0,0l-0.2-0.2L9,26c-0.3-0.4-0.6-0.7-0.9-1c-0.2-0.2-0.4-0.4-0.5-0.7
	c-0.1-0.2-0.2-0.4-0.3-0.6l-0.2-0.3c-0.1-0.1-0.1-0.1-0.2-0.4c-0.5-0.7-0.6-1.2-1-1.9l-0.4-0.4C5,20,4.8,19.9,4.2,18.9
	C4.1,18.8,4,18.7,4,18.6c-0.2-0.1-0.3-0.3-0.4-0.4l-0.2-0.3c-0.1-0.1-0.2-0.2-0.2,0c-0.2,0.8-0.5,1.6-0.9,2.3L1.9,21
	c-0.1,0.7-0.3,1.5-0.6,2.2c0,0.1-0.1,0.4-0.2,0.6c-0.2,0.6-0.2,0.8-0.3,1.1c-0.1,0.2-0.2,0.4-0.3,0.5c-0.2,0.4-0.3,0.7-0.5,1
	c0,0.2,0,0.3,0,0.4c0,0.5,0,1,0.1,1.4c0,0.2,0,0.3,0,0.5c0,0.4,0,0.7,0,1c0,0.1,0,0.1,0,0.2c-0.2,0.4-0.1,0.9,0,1.3
	c0,0.3,0.1,0.6,0.2,0.9c0.1,0.3,0.2,0.6,0.3,1C0.7,33.4,0.8,33.6,0.9,33.7L0.9,33.7z M6.3,22.6c-0.1-0.1-0.1-0.2-0.2-0.3
	c0,0,0-0.1,0.1,0l0.5,0.6C6.8,23.2,6.5,22.8,6.3,22.6z M35.1,55.7L35.1,55.7L35.1,55.7L35.1,55.7L35.1,55.7z M9.4,26.6L9.4,26.6
	L9.4,26.6L9.4,26.6z"/>
<polygon style="fill:#132645;" points="9.2,38.3 9.1,38.4 9.2,38.4 "/>
<path style="fill:#132645;" d="M1.2,34.3l0,0.2C1.2,34.5,1.2,34.4,1.2,34.3L1.2,34.3L1.2,34.3z"/>
<path style="fill:#132645;" d="M1.1,34c-0.1-0.1-0.1-0.2-0.1-0.3l0,0L1.1,34L1.1,34z"/>
<polygon style="fill:#132645;" points="1.2,34.4 1.1,34 1.1,34.1 1.1,34 1.1,34 1.3,34.3 1.3,34.3 1.2,34.3 "/>
<polygon style="fill:#132645;" points="3.4,36.7 3.5,36.8 3.5,36.8 "/>
<path style="fill:#132645;" d="M8.3,13.6h0.1l0,0H8.3z"/>
<polygon style="fill:#132645;" points="16.8,17.4 17,17.5 16.9,17.4 "/>
<path style="fill:#FFFFFF;" d="M40.1,34.5c0,0-0.6,8.9,0,13s-0.8,11.8,6.4,11.6s4.5-10.5,3.5-14.9c-0.9-3.7-2-7.3-3.3-10.9
	c0,0,0.5-11.4-1.1-11s-11.8,1-11.2,3.1S40.1,34.5,40.1,34.5z"/>
<path style="fill:#132645;" d="M43,56l-0.2,0l0,0c-0.1,0-0.1,0-0.1-0.1l0,0c-0.2-0.2,0-0.4-0.1-0.5s-0.2-0.1-0.2-0.2
	s-0.1-0.3-0.1-0.5l0,0C42.1,54.5,42,54.3,42,54c0,0-0.1-0.1-0.2-0.1s0-0.2,0-0.3s0-0.4,0-0.7s0.1-0.2,0.1-0.5L41.7,52
	c0-0.1,0-0.2,0.1-0.3l0,0c0-0.4,0-0.7,0-1.1c0-0.4,0-0.7-0.2-1.1c0-0.3,0.2-0.5,0.1-0.8c-0.2-0.3-0.3-0.6-0.3-1
	c0.1-0.2,0.1-0.5,0.1-0.7c0-0.2,0-0.4,0-0.6c0-0.1,0-0.3-0.1-0.3c-0.2-0.1-0.2-0.2-0.2-0.5l0.1-0.3c-0.1-0.1-0.2-0.3-0.2-0.5
	c0-0.2,0-0.5,0-0.7c0.1-0.3,0.1-0.6,0-0.8c0-0.1,0-0.3-0.1-0.4c0.1-0.1,0.1-0.3,0.2-0.3s0.2-0.4,0.3-0.6c0.1-0.2,0.1-0.3,0-0.5
	c0-0.1,0-0.2,0.1-0.3c0-0.1-0.1-0.2-0.1-0.3c0-0.1,0.1-0.3,0.1-0.4s-0.1-0.5-0.2-0.8c-0.1-0.2-0.1-0.5-0.1-0.7c0-0.1,0-0.3-0.1-0.4
	c0-0.2-0.1-0.3-0.1-0.4s-0.1-0.5-0.1-0.8c0.1-0.2,0.1-0.4,0.1-0.6c0-0.3,0-0.6,0-0.9C41,35.6,40.9,35.3,41,35c0-0.1,0-0.1,0-0.2
	l-0.6-0.4c-0.2,0.3-0.5,0.4-0.6,0.7c-0.2,0.3-0.3,0.7-0.3,1.1c0,0.1,0,0.2,0,0.3l-0.2,0.2c0,0.2,0,0.4,0,0.6c0,0.6,0.1,1.1,0.3,1.6
	c0.1,0.2,0,0.2-0.1,0.5c-0.1,0.2-0.2,0.4-0.3,0.5c0,0.2,0,0.5,0,0.7c-0.2,0.3-0.2,0.7-0.2,1.1c0.1,0.4,0,0.8-0.2,1.1
	c-0.1,0-0.2-0.1-0.2,0c-0.1,0.3-0.3,0.4-0.3,0.8c0,0.3,0.1,0.6,0.2,0.9c0.1,0.2,0.2,0.5,0.2,0.7c0,0.2,0,0.3,0.1,0.5
	c0.2,0.3,0.3,0.7,0.2,1.1c0,0.2,0,0.3,0.1,0.5l0,0c0,0.2,0.1,0.3,0.1,0.5c0,0.1,0,0.1,0,0.2c0,0.3,0,0.7,0,1.1c0,0,0,0.1,0,0.1
	c0.2,0.3,0.2,0.7,0.2,1c0,0.3,0,0.7,0,1l0.1,0.2v-0.1l0,0l0,0c0.1,0.2,0.1,0.4,0.1,0.7c0,0.1,0,0.2,0,0.3c0.1,0.2,0.1,0.4,0.1,0.5
	c0,0.2,0.2,0.3,0.2,0.6c-0.2,0.1-0.2,0.4-0.1,0.6c0.1,0.3,0,0.4,0,0.5c0.2,0.3,0.3,0.7,0.5,1c0.1,0.1,0.1,0.3,0.2,0.4l0.3,0.8
	c0.1,0.1,0.2,0.3,0.2,0.5c0,0.3,0.2,0.6,0.4,0.8c0.1,0.1,0.3,0.3,0.4,0.5c0.1,0.2,0.3,0.4,0.5,0.6c0.5,0.4,1.1,0.7,1.8,0.9
	c0.2,0,0.4,0.1,0.6,0.1h0.4c0.3,0.3,0.3,0.3,0.8,0.2l0.4,0h0.2c0.1,0,0.2,0.1,0.4,0.1c0.1,0,0.1,0,0.2-0.1c0.4-0.2,0.8-0.3,1.2-0.3
	c0.5-0.1,1-0.3,1.5-0.6c0.3-0.3,0.7-0.4,1-0.7c0.3,0,0.7-0.5,1-0.7c0.1-0.3,0.3-0.7,0.5-1c0.1-0.1,0.2-0.3,0.2-0.5s0.2-0.5,0.1-0.6
	c-0.1-0.3-0.1-0.7,0-1c0,0,0-0.1,0.1-0.1c0,0,0.1-0.1,0.1-0.1c0.2-0.2,0.2-0.5,0.1-0.8c0-0.1,0-0.2-0.1-0.3c0.1-0.3,0.1-0.6,0.2-0.9
	c0-0.3,0-0.6,0.1-0.8c0,0,0-0.1,0-0.1c0-0.1,0-0.2,0-0.3c0-0.1,0-0.2,0-0.2c0-0.5-0.1-1.1,0-1.6c-0.2-0.5-0.1-1-0.3-1.5
	c0-0.2-0.1-0.3-0.1-0.4c0-0.1,0-0.1,0-0.2c0.1-0.5,0.1-1-0.1-1.4c0-0.1-0.1-0.2-0.1-0.3c0-0.2-0.1-0.3-0.2-0.3l-0.1-0.1
	c0-0.2-0.1-0.4-0.2-0.6l-0.4-0.8c0-0.3,0-0.7-0.1-1c-0.2-0.7-0.3-1.5-0.3-2.2c0-0.3,0-0.5-0.1-0.8c0-0.2-0.1-0.3-0.2-0.5l-0.3-0.8
	c-0.1-0.2-0.1-0.4,0-0.5s0-0.1,0-0.1c-0.1-0.2-0.2-0.5-0.3-0.7c-0.3-0.2-0.6-0.5-0.8-0.9l0,0c-0.2-0.3-0.3-0.6-0.4-1l0.3,0.3v-0.7
	l-0.2-0.3c0-0.3,0-0.7,0-1c0-0.2,0-0.3,0-0.5c0-0.1-0.1-0.1-0.1-0.2c0-0.1-0.1-0.2-0.2-0.1l0,0c0,0,0,0,0-0.1c0-0.1,0-0.2,0-0.2
	c-0.1-0.3-0.1-0.7-0.2-1c0-0.2-0.1-0.4-0.1-0.5v-0.6c0,0-0.1,0-0.1-0.1C48,30.4,48,30.3,48,30.2c0-0.1,0-0.2,0.1-0.3
	c0.2,0,0.2-0.4,0.2-0.6s0-0.4,0-0.6c0-0.2,0-0.3-0.1-0.5c-0.1-0.2,0-0.3,0-0.5c-0.2-0.3-0.3-0.6-0.3-0.9c0-0.2,0-0.4,0-0.7
	c0-0.3,0-0.6-0.2-0.9c-0.1-0.3-0.3-0.6-0.3-0.9c0-0.2,0-0.3,0-0.5c0-0.2,0-0.4,0-0.6c-0.1-0.5-0.2-0.9-0.5-1.3
	c-0.2-0.3-0.5-0.4-0.8-0.5c-0.3-0.1-0.6-0.1-0.9,0H45c-0.2,0.1-0.4,0.1-0.6,0c-0.2-0.1-0.4-0.1-0.7,0l-0.5,0.1
	c-0.1,0-0.2,0.1-0.3,0.1c-0.1,0.1-0.2,0.1-0.4,0.1l-0.8-0.2c-0.4,0.2-0.8,0.3-1.2,0.2C40.2,22,39.8,22,39.4,22c-0.2,0-0.5,0-0.7,0.2
	c-0.1,0-0.1,0.1-0.2,0.1c-0.2,0-0.5,0-0.7,0.1h-0.3c-0.1,0-0.3,0-0.4,0c-0.1,0.1-0.3,0.1-0.4,0.2c-0.3,0-0.5,0-0.8,0.1l-0.3,0.3
	c-0.1,0.1-0.3,0.2-0.4,0.3c-0.4,0.2-0.4,0.4-0.7,0.6c-0.4,0.1-0.8,0.3-1,0.6c-0.4,0.5-0.2,1-0.1,1.4v0.2c0,0.1,0,0.2,0,0.2
	c0.1,0.3,0.2,0.6,0.3,0.9c0.1,0.1,0.1,0.2,0.2,0.4c0.1,0.1,0.1,0.2,0.2,0.3c0.2,0.1,0.3,0.3,0.4,0.5c0.2,0.4,0.4,0.8,0.5,1.1
	l0.5,0.5c0.1,0.4,0.3,0.7,0.5,1c0,0,0,0.1,0.1,0.2c0.2,0.4,0.5,0.8,0.8,1c0.2,0.1,0.4,0.2,0.5,0.4c0.1,0.2,0.2,0.3,0.3,0.5
	c0,0.1,0,0.2,0.1,0.4c0,0.1,0,0.1,0.1,0.2c0.1,0.2,0.3,0.5,0.5,0.6c0.1,0.1,0.2,0.2,0.3,0.3c0.1,0.1,0.1,0.3,0.2,0.4h0.4
	c0-0.2,0.2-0.1,0.4-0.1c0-0.2-0.1-0.4-0.2-0.6c0-0.1-0.1-0.1-0.1-0.2L39,33.8c-0.1-0.2-0.1-0.3-0.2-0.5c-0.1-0.2-0.2-0.4-0.3-0.5
	c-0.1-0.3-0.3-0.7-0.5-1c0,0,0-0.1,0-0.2h0.2c0-0.1,0-0.2,0-0.3c0-0.3-0.1-0.6-0.3-0.9c-0.3-0.5-0.6-1-1-1.5l-0.4-0.5
	c-0.2-0.5-0.1-0.5-0.5-0.7c0.2-0.5,0.2-0.5,0-1.2c-0.1-0.1-0.1-0.2-0.2-0.2l-0.2-0.1c-0.1,0-0.1-0.1-0.2-0.2c0,0-0.1-0.1-0.1-0.1
	c-0.1-0.1-0.3-0.2-0.3-0.3c-0.1-0.1-0.1-0.2,0-0.3s0.2,0,0.4,0l0.2,0.1c0.1-0.1,0.2-0.1,0.4-0.1c0.1,0,0.3,0,0.4,0
	c0.2-0.1,0.3-0.1,0.5-0.2c0.2-0.1,0.4-0.1,0.6-0.1c0.2,0,0.3,0,0.5-0.1c0.2-0.1,0.4,0,0.6,0c0,0,0,0,0-0.1v-0.1
	c0.8-0.1,0.8-0.1,1.2-0.4h0.1c0.4,0,0.9,0,1.3-0.1l0.9,0.3c0.1,0,0.1,0.1,0.2,0.1c0.4,0,0.8,0,1.2,0.1h0.1c0.3-0.2,0.6-0.3,0.9-0.4
	c0,0,0.1,0,0.1,0h0.1c0.1,0,0.2,0,0.3,0c0.1,0,0.1,0,0.2,0c0,0.2-0.1,0.4,0.1,0.5s0.2-0.1,0.2,0.1s-0.1,0.5-0.2,0.7s0,0.3,0,0.5
	l0.3,0.6c0,0.3,0,0.7,0,1c0,0.3,0,0.6,0.1,0.9c-0.1,0.2-0.1,0.4-0.1,0.6c0,0.3,0,0.5,0.1,0.8c-0.2,0.6-0.3,1.2-0.3,1.9
	c0,0.2-0.1,0.3-0.1,0.5s-0.2,0.2-0.2,0.4c0.1,0.1,0.1,0.3,0,0.4c0,0.1,0.1,0.2,0.1,0.2c0.1,0.1,0.1,0.2,0.1,0.3c0,0.2,0,0.3,0,0.5
	c0.3,0.7,0.5,0.8,0.7,1.2s0.3,0.6,0.4,0.9c0,0.1,0,0.2,0,0.3c0,0.3,0,0.6,0.2,0.8c0.2,0.3,0.1,0.6,0.2,0.9s-0.1,0.2-0.1,0.4
	s0,0.1,0,0.2l0.3,0.4c0,0.4,0.2,0.9,0.3,1.3c-0.1,0.3-0.1,0.3,0,0.7c0,0.1,0.1,0.2,0.2,0.4c0,0.1,0,0.1,0,0.2l0,0c0,0.1,0,0.2,0,0.2
	c0.2,0.4,0.3,0.8,0.3,1.2c0,0.4,0.2,0.7,0.4,1c0.2,0.3,0.3,0.5,0.5,0.8c0.1,0.2,0,0.2,0,0.3l0.4,0.7l0.1-0.2c0,0.2,0.1,0.3,0.1,0.4
	s0.1,0.3,0.2,0.4c-0.1,0.4-0.1,0.9,0,1.3c0.1,0.3,0.1,0.5,0,0.8c0,0.1,0,0.1,0,0.2l0.2,0.5c0,0.2,0,0.5,0,0.8c0,0.1,0,0.3,0.1,0.4
	c0-0.1,0-0.3,0.1-0.3c0.1,0.2,0.1,0.5,0,0.7c0,0.1,0,0.2,0,0.2c0.1,0.2-0.1,0.3,0,0.5s0.2,0.2,0.2,0.4c-0.2,0.3-0.2,0.3-0.3,0.8
	c0,0.1,0,0.3-0.1,0.4c-0.1,0.4-0.1,0.8,0,1.1c0,0.2,0,0.5,0.1,0.7c0,0.1,0,0.3-0.1,0.4c-0.1,0.2-0.2,0.4-0.3,0.6
	c-0.1,0.2-0.2,0.2-0.4,0.3c0,0,0,0.1,0,0.2c0,0.2-0.1,0.4-0.3,0.5h-0.1c0,0.1-0.2,0.2-0.2,0.3c-0.1,0.2-0.4,0.3-0.6,0.3h-0.3
	c-0.2,0.1-0.3,0.3-0.6,0.2c-0.1,0-0.1,0-0.2,0c-0.3,0-0.7,0-0.7-0.2c-0.2-0.1-0.3-0.2-0.5-0.3c-0.1,0-0.1,0-0.2,0
	c-0.2,0-0.4,0.1-0.6,0.1c-0.1,0-0.1,0-0.2,0c-0.1,0-0.3-0.1-0.4-0.1c0,0,0-0.1,0-0.1c0-0.2-0.1-0.3-0.3-0.3
	c-0.1-0.2-0.4-0.2-0.5-0.5C43.2,56.2,43.1,56.1,43,56L43,56z M49.4,56.2L49.4,56.2L49.4,56.2l-0.1-0.2C49.4,56,49.4,56.1,49.4,56.2
	L49.4,56.2z M34,27.2L34,27.2L34,27.2L34,27.2L34,27.2z M49.6,53.7L49.6,53.7L49.6,53.7L49.6,53.7L49.6,53.7z"/>
<polygon style="fill:#132645;" points="41.8,51.7 41.8,51.8 41.8,51.7 "/>
<path style="fill:#132645;" d="M42.9,55.8L42.9,55.8L42.9,55.8z"/>
<path style="fill:#132645;" d="M42.9,56C43,56,43,56,42.9,56L42.9,56L42.9,56L42.9,56z"/>
<polygon style="fill:#132645;" points="42.8,55.8 42.9,56 42.9,55.9 42.8,56 42.9,56 42.8,55.9 42.8,55.9 42.9,55.8 "/>
<polygon style="fill:#132645;" points="42.4,54.7 42.4,54.6 42.4,54.7 "/>
<path style="fill:#132645;" d="M47.3,41.2L47.3,41.2L47.3,41.2L47.3,41.2L47.3,41.2z"/>
<polygon style="fill:#132645;" points="49.1,36.6 49.1,36.5 49.1,36.5 "/>
<line style="fill:none;" x1="40.1" y1="34.5" x2="46.7" y2="33.3"/>
<path style="fill:#132645;" d="M41.5,32.7L41.5,32.7C41.5,32.9,41.5,32.8,41.5,32.7L41.5,32.7C41.5,32.8,41.4,32.6,41.5,32.7
	C41.4,32.7,41.4,32.8,41.5,32.7C41.4,32.7,41.4,32.8,41.5,32.7L41.5,32.7c-0.1,0.2-0.1,0.3-0.1,0.3s0,0.1,0,0.1l0,0c0,0,0-0.1-0.1,0
	s0-0.1-0.1-0.1v0.1c0,0,0,0,0-0.1l0,0c0-0.1-0.1,0-0.1,0s0,0-0.1,0.1S41,33,41,33s0,0.3,0,0.3c0-0.1,0-0.1-0.1-0.2c0,0,0,0-0.1-0.1
	s0,0,0,0.1s0,0.2,0,0.1v-0.1c0,0.1,0,0.1,0,0.2c0,0,0,0,0,0s0,0-0.1,0s0,0,0,0c0-0.1,0-0.1-0.1-0.2c0-0.1-0.1-0.2-0.1-0.3
	c0-0.1,0,0,0,0c0,0,0,0,0-0.1v0.1c0,0,0-0.1,0-0.1c0,0.1,0,0.2,0,0.2c0,0.1,0,0.2,0,0.1s0,0,0,0.1c0,0,0,0.1,0,0.1c0,0,0,0.1,0,0.1
	c0-0.1,0-0.1-0.1-0.1H40c0,0.2,0,0.2,0,0.2l0,0l0.1,0.6c0.1,0.2,0.1,0.4,0.2,0.6s0.1,0.3,0.1,0.2s0,0,0,0v0.2c0,0,0,0,0-0.1
	c0-0.1,0.1-0.2,0.1-0.4c0-0.1,0,0,0,0.1c0,0.1,0.1,0.2,0.1,0.3l0,0c0,0.2,0.1,0.2,0.1,0.1s0.1,0,0.1,0.2s0,0.2,0,0.2
	s0.1,0.3,0.1,0.3c0-0.1,0-0.1,0-0.2c0-0.1,0-0.1,0-0.1s0,0,0-0.1s0-0.2,0.1-0.1s0,0,0-0.1l0,0l0,0c0,0,0-0.1,0,0s0,0,0,0H41l0,0
	c0-0.1,0-0.2,0-0.1s0,0,0.1,0v-0.2l0,0l0,0c0,0,0-0.1,0,0s0,0,0,0s0-0.1,0-0.1s0-0.1,0-0.1s0.1,0.2,0.1,0.2s0,0.1,0,0.1s0-0.2,0-0.2
	s0,0,0,0h0.1c0,0,0,0.1,0,0.1c0,0.2,0.1,0.2,0.1,0.1s0,0,0,0s0,0.1,0.1,0.1s0.1,0,0.1,0s0,0,0,0s0,0,0-0.1c0.1,0.2,0.1,0.2,0.1,0.1
	c0,0,0,0,0-0.1l0,0c0,0,0,0.1,0,0.1v0c0-0.2,0-0.2,0-0.2s0.1,0,0.1-0.1s0,0,0.1,0c0,0.2,0.1,0.1,0.1,0.2c0-0.2,0-0.2,0.1-0.1
	s0,0.1,0,0s0,0,0-0.1s0-0.2,0-0.2l0,0c0,0,0,0.1,0,0.1c0,0.1,0.1,0.1,0.1,0c0,0,0,0,0-0.1l0.1,0.1c0,0,0,0,0.1,0.1l0,0l0,0v0.1
	c0,0.1,0.1,0,0.1,0.1c0-0.1,0.1,0,0.1-0.1c0,0,0,0,0-0.1l0,0c0.1,0.2,0.1,0.2,0.1,0.1s0,0,0,0s0,0,0-0.1s0-0.1,0-0.1s0,0,0-0.1
	c0-0.1,0-0.1,0-0.2c0,0,0.1,0.2,0.1,0.2s0.1,0.1,0.2,0.2s0,0.1,0.1,0.1l0,0v-0.1c0,0,0,0,0.1,0.1c0,0,0,0,0,0.1v-0.1
	c0-0.2,0-0.3,0-0.5l0,0c0-0.1,0-0.1,0.1-0.1V35l0.1,0.2v-0.1c0.1,0.1,0.1,0.2,0.1,0.3c0.1,0.2,0.1,0.2,0.1,0l0,0l0,0l0,0
	c0-0.1,0-0.2,0-0.2c0,0,0-0.1,0-0.1l0,0c0,0,0-0.1,0-0.1c0,0,0-0.1,0-0.1V35c0,0.2,0,0.2,0.1,0.2s0,0,0,0s0,0,0-0.1s0,0,0,0
	c0-0.2,0-0.2,0-0.2s0,0,0,0s0,0,0-0.1c0-0.1,0-0.2,0-0.2c0,0.1,0.1,0.1,0.1,0.2s0.1,0,0.1,0s0.1-0.1,0.1-0.1s0,0,0.1,0.1
	s0,0.1,0.1,0.1c0,0,0,0,0-0.1c0,0,0-0.1,0-0.1c0,0,0-0.1,0-0.1l0.1,0.3c0-0.1,0-0.2,0.1-0.1c0-0.1,0.1,0,0.1,0s0,0.1,0-0.1s0,0,0,0
	l0,0l0,0c0,0,0,0,0,0s0-0.1,0-0.1s0,0.1,0.1,0.1c0-0.1,0-0.2,0-0.2c0-0.1,0-0.2,0-0.2c0,0.1,0.1,0.2,0.1,0.2c0,0,0-0.1,0.1-0.1
	c0,0,0,0.1,0,0.1c0,0,0.1,0.1,0.1,0s0-0.1,0-0.1s0.1,0,0.1,0.1v-0.2c0,0,0.1,0.2,0.1,0.1s0,0,0,0s0.1,0,0.1-0.2c0-0.1,0-0.1,0-0.2
	c0,0,0,0.1,0.1,0.1c0,0.1,0,0.1,0,0.2l0,0c0,0.1,0,0,0,0s0-0.1,0,0s0,0,0,0.1c0-0.1,0-0.2,0-0.3c0-0.1,0-0.2,0-0.4
	c0-0.1-0.1-0.2-0.1-0.2l0,0c0,0.1,0,0.1,0,0.2c0,0,0-0.1-0.1-0.1s0,0,0-0.1s-0.1-0.2-0.1-0.2s0,0,0-0.1s0-0.1,0-0.2
	c0-0.1,0-0.1,0-0.2c0-0.1-0.1-0.2-0.1-0.3c0,0-0.1-0.1-0.1,0v0.1c-0.1-0.1-0.1-0.1-0.1,0c0-0.2-0.1-0.4-0.2-0.6c0,0.1,0,0.1,0,0.2
	s0,0,0,0.1s0,0.2,0,0.3s0,0.2,0,0.1c0-0.1,0-0.1-0.1-0.2c0-0.1,0-0.1,0-0.2s0,0-0.1,0s0-0.1-0.1-0.1s0,0.1,0,0.1l0,0c0,0,0,0,0,0
	s0-0.1,0,0v0.1c0,0,0,0.1,0,0.1c-0.1-0.1-0.1-0.1-0.1,0.2l0,0c-0.1-0.1-0.1-0.1-0.1-0.1c-0.1-0.1-0.1-0.3-0.2-0.4
	c-0.1-0.2,0-0.1,0-0.1s1.7,0,1.6,0l0,0c0,0.1,0,0.2,0,0.3l0,0l-0.1-0.1v0.2c0,0-0.1-0.2-0.1,0s0,0.2,0,0.2l-0.1-0.3c0,0,0-0.1,0-0.1
	c0,0.1,0,0.2,0,0.2c0,0-0.1-0.1-0.1,0s0,0,0,0.1s0-0.1-0.1-0.1s0,0,0,0.1c0-0.1-0.1-0.2-0.2-0.3c0,0,0,0,0-0.1c0-0.1,0-0.1-0.1-0.2
	c0,0.1,0,0.1,0,0c0,0.1,0,0.1,0,0.2c0,0.1,0,0.2,0,0.3c0,0,0,0.1,0,0.1v-0.1c0-0.1-0.1-0.1-0.1-0.1s-0.1-0.1-0.1-0.1s0-0.2-0.1-0.2
	l0,0v0.2c-0.1-0.2-0.1,0-0.1,0c0-0.2-0.1-0.2-0.1-0.2v0c0,0,0,0,0,0l0,0l0,0c0,0-0.1,0-0.1,0s-0.1,0,0,0.2c0,0.1,0,0.2,0,0.3
	c0,0,0-0.1,0,0s0,0.2,0,0.2c0,0.1,0,0.1,0,0.2c0,0,0,0,0,0c0,0,0,0.1,0,0.1c-0.1-0.2-0.1-0.3-0.1-0.2s0,0-0.1-0.1l0,0v0.1l-0.1-0.1
	c0,0,0,0,0,0.1s0,0,0,0.2s0,0.1-0.1-0.1s0-0.1,0-0.1s0-0.1-0.1-0.1s0,0.2,0,0.2c-0.1-0.3-0.1-0.3-0.1-0.3s0,0,0,0s-0.1,0-0.1,0.1
	c0,0.1,0,0.2,0,0.2c0,0.1,0,0.1,0,0s-0.1-0.1-0.1-0.1s-0.1-0.1-0.1-0.1v0.1c0,0.1,0,0.1,0,0.1s0,0,0,0s0,0.1,0,0.1s0,0.1-0.1,0v-0.1
	c0,0.1,0,0.2,0,0.1s0,0,0,0s0,0-0.1-0.2l-0.1-0.3l0,0c0,0.1,0,0.2,0,0.3c0,0,0,0.1,0,0.1c0,0,0,0.1,0,0.1v-0.1
	c0-0.2-0.1-0.2-0.1-0.1c0,0,0,0.1-0.1,0s0,0,0,0L41.5,32.7z M42.2,32.9L42.2,32.9C42.2,32.9,42.2,32.8,42.2,32.9c0-0.1,0-0.1,0-0.2
	C42.3,32.7,42.3,32.8,42.2,32.9z M46.2,34.4L46.2,34.4L46.2,34.4L46.2,34.4z M42.4,32.4L42.4,32.4L42.4,32.4L42.4,32.4z"/>
<path style="fill:#132645;" d="M41.1,32.9L41.1,32.9z"/>
<path style="fill:#132645;" d="M41.4,32.7L41.4,32.7L41.4,32.7L41.4,32.7z"/>
<path style="fill:#132645;" d="M41.5,32.7C41.5,32.7,41.5,32.7,41.5,32.7L41.5,32.7z"/>
<path style="fill:#132645;" d="M41.4,32.7L41.4,32.7L41.4,32.7L41.4,32.7L41.4,32.7L41.4,32.7z"/>
<path style="fill:#132645;" d="M41.3,32.7L41.3,32.7L41.3,32.7z"/>
<path style="fill:#132645;" d="M43.3,32L43.3,32z"/>
<path style="fill:#132645;" d="M44.2,35L44.2,35L44.2,35z"/>
<path style="fill:#FFFFFF;" d="M54.8,73.1L68,22.9c0,0-11-0.2-11.5-1.5s2.5-12,3.9-11.3s9.2,5.8,9.7,6.2s-1-2.8,0-3.2s8.5,2,8.2,2.4
	S77,18,77.2,18.5s2.5,0.8,3.6,2.1s4.1,6.9,2.8,6.3s-5.5-4.5-7.3-4.5s-17,50.8-17,50.8L54.8,73.1z"/>
<path style="fill:#132645;" d="M64.7,29.3v0.3c0,0.1,0,0.3-0.1,0.4v0c-0.1,0.6-0.4,0.8-0.5,1.3c0,0.3,0.1,0.5-0.1,0.8
	c-0.1,0.4-0.3,0.7-0.3,1.1l0,0c0.1,0.5,0,1-0.2,1.5c0,0.1,0,0.2,0,0.3s-0.1,0.4-0.2,0.6c-0.1,0.5-0.3,0.8-0.4,1.4s-0.3,0.4-0.3,0.9
	l-0.2,1.1c0,0.2-0.1,0.4-0.2,0.6l0,0c-0.3,0.7-0.4,1.4-0.6,2.1c-0.2,0.7-0.4,1.4-0.5,2.1c-0.2,0.5-0.4,0.9-0.5,1.4
	c0,0.6,0,1.2-0.1,1.7c-0.2,0.4-0.4,0.8-0.5,1.2c-0.1,0.4-0.3,0.8-0.4,1.2c-0.1,0.2-0.1,0.5-0.1,0.7c0.1,0.3,0,0.5-0.2,1
	c-0.1,0.2-0.2,0.4-0.2,0.7c0,0.3,0,0.7,0,1c-0.1,0.5-0.2,0.9-0.3,1.4c-0.2,0.5-0.3,1.1-0.4,1.7c0,0.2-0.1,0.5-0.2,0.8
	c-0.1,0.2-0.2,0.4-0.4,0.6c-0.3,0.3-0.5,0.7-0.6,1.1c-0.1,0.3-0.2,0.7-0.2,1c-0.1,0.2-0.1,0.4-0.2,0.5c0,0.2-0.1,0.5-0.1,0.7
	s-0.2,0.5-0.3,0.8c0,0.5-0.1,1.1-0.2,1.5c0,0.5-0.1,1-0.2,1.4c-0.1,0.3-0.1,0.6-0.1,0.9c0,0.3-0.1,0.6-0.1,0.8l-0.3,1.5
	c-0.2,0.3-0.3,0.7-0.4,1.1c-0.2,0.6-0.3,1.1-0.5,1.7c0.1,0.5,0,1-0.1,1.4c0,0.1-0.1,0.3-0.1,0.4c0.1,0.3,0.3,0.6,0.4,0.9
	c0.4-0.4,0.7-0.9,1-1.3c0.4-0.6,0.7-1.3,0.8-2.1c0-0.2,0.1-0.4,0.2-0.6l0.3-0.4c0.1-0.4,0.2-0.8,0.3-1.2c0.2-1.1,0.4-2.1,0.5-3.2
	c0-0.4,0.1-0.4,0.3-1c0.2-0.3,0.4-0.7,0.6-0.9c0.1-0.5,0.2-0.9,0.3-1.3c0.3-0.6,0.5-1.3,0.7-2c0.1-0.7,0.4-1.5,0.8-2.1
	c0.1,0,0.1,0.2,0.2,0c0.3-0.4,0.5-0.9,0.7-1.3c0.1-0.6,0.2-1.2,0.3-1.8c0-0.4,0.1-0.9,0.2-1.3c0.1-0.3,0.1-0.6,0.2-0.9
	c0-0.7,0.2-1.4,0.4-2c0.1-0.3,0.2-0.6,0.2-0.9v0.1v-0.1c0-0.3,0.1-0.7,0.2-1c0.1-0.1,0.1-0.3,0.1-0.4c0.2-0.7,0.4-1.4,0.6-2.2
	c0,0,0-0.2,0-0.2c0-0.7,0.2-1.4,0.4-2c0.2-0.5,0.4-1.2,0.5-1.8v-0.4l-0.1,0.2v-0.1l0,0c0.1-0.4,0.2-0.8,0.3-1.2
	c0.1-0.2,0.1-0.4,0.1-0.6c0-0.3,0.1-0.7,0.2-1c0.1-0.4,0-0.7,0.2-1.2c0.3-0.2,0.4-0.6,0.4-0.9c0.1-0.6,0.3-0.6,0.3-0.8
	c0.1-0.7,0.2-1.4,0.3-2c0-0.3,0.1-0.5,0.2-0.8l0.4-1.4c0.1-0.3,0.2-0.5,0.3-0.7c0.2-0.4,0.4-0.8,0.5-1.3c0.1-0.3,0.2-0.6,0.3-0.9
	c0.2-0.4,0.3-0.7,0.4-1.1l0.4-1.6c0.2-0.8,0.4-1.7,0.7-2.5c0.1-0.4,0.2-0.8,0.3-1.2h-0.4h-1.3c-0.7-0.2-1.4-0.3-2.1-0.3h-0.4h-0.3
	H65c-0.2-0.1-0.4-0.1-0.7-0.1c-0.1,0-0.3,0-0.3,0c-0.6,0.1-1.3,0.1-1.9,0C61.3,21,60.5,21,59.7,21c-0.3,0-0.6,0-0.9-0.1l-0.6-0.1
	c0-0.2-0.3-0.2-0.2-0.4c0,0,0-0.1,0-0.1c-0.1-0.1-0.1-0.2-0.1-0.3c0-0.3,0.1-0.7,0.2-1c0.1-0.2,0.2-0.5,0.2-0.8c0-0.3,0.2-0.7,0.2-1
	c0-0.5,0.1-1.1,0.2-1.6c0-0.1,0.1-0.1,0.1-0.2c0.1-0.1,0.1-0.1,0.2-0.2c0.3-0.4,0.4-0.8,0.5-1.3l0.1-0.4c0.2-0.5,0.5-0.9,0.7-1.3
	c0-0.1,0.1-0.2,0.2-0.3c0-0.1,0.1-0.1,0.2-0.1s0-0.1,0-0.1s0.1-0.1,0.1-0.1c0,0,0.1,0.1,0.1,0.1c0,0,0.1,0.1,0.1,0.1l0.3,0.2
	c0.4,0.2,0.8,0.5,1.2,0.8c0.8,0.4,1.6,1.1,2.4,1.5l0.8,0.4c0.1,0.1,0.2,0.1,0.3,0.2l0.2,0.2l0.1,0.1l0.2,0.1l0.8,0.6
	c0.6,0.4,1.2,0.8,1.9,1.2l0.5,0.2c0.1,0,0.3,0.1,0.4,0.1h0.3c0.4,0,0.5-0.1,0.5-0.2c0,0,0-0.1,0.1-0.1c0.2-0.1,0.2-0.1,0.2-0.2
	l0.1-0.1c0-0.1,0-0.2,0.1-0.5c0.1-0.3,0.1-0.7,0.1-1c-0.1-0.5-0.2-1-0.3-1.5c0-0.1-0.1-0.1-0.1-0.2l0,0l-0.4-0.2h-0.1h-0.1
	c0,0-0.1-0.1,0,0l0,0c0.1,0.1-0.1-0.2-0.1-0.2l0,0c0,0.1,0.1,0.1,0.1,0.2c0,0.1,0,0.1,0,0.2l0.1,0.3c0,0.1,0,0.1,0,0.1l0,0l0,0
	c0.2,0,0.5,0.1,0.8,0.1c1.4,0.3,2.7,0.7,4,1.3c0.2,0.1,0.4,0.2,0.6,0.3c0.1,0,0.1,0,0.2-0.1h0.1h0.1v0c0,0,0,0.1,0,0.1
	c0,0,0,0.1-0.1,0.1c-0.1,0.1-0.1,0.2-0.2,0.3c-0.1,0.1-0.1,0.1-0.2,0.2c-0.1,0.3-0.2,0.7-0.3,1c0,0,0,0.1,0,0.2c0,0.1,0,0.2,0,0.3
	c0,0.2,0,0.4,0.1,0.6c0.1,0.3,0.2,0.5,0.4,0.7c0.2,0.2,0.5,0.4,0.8,0.6c0.4,0.1,0.8,0.1,1.1,0.2c0.4,0,0.7,0.1,1.1,0.3l0,0
	c0.2,0,0.4,0.1,0.6,0.3c0.2,0.2,0.4,0.4,0.5,0.6c-0.1-0.1-0.3-0.2-0.4-0.3l0.4,1l0.5,0.6c0.3,0.6,0.5,1.2,0.7,1.8
	c0.1,0.6,0.3,1.1,0.7,1.5c0,0.1,0.1,0.1,0.1,0.2c0,0.1,0.1,0.3,0.1,0.4c0,0,0,0.1,0,0.1h0.1c0.2-0.1,0.4-0.1,0.7-0.1
	c0.2,0,0.3,0,0.5,0c0.1,0,0.2,0,0.3,0.1c0.1,0.1,0,0,0-0.1c0-0.1,0.1-0.3,0.1-0.4v0l0,0l0,0l0.3-0.8c0-0.1,0-0.1,0-0.1l0,0H84
	c-0.1-0.1-0.2-0.1-0.4-0.2c-0.3-0.1-0.6-0.3-0.8-0.5c-0.3-0.2-0.6-0.3-0.9-0.6l-1.1-0.8c-0.1,0-0.1,0.1-0.2,0
	c-0.2-0.1-0.4-0.1-0.6-0.2c-0.3-0.2-0.4-0.3-0.4-0.4s-0.5-0.6-0.9-0.8c-0.3-0.2-0.6-0.3-0.8-0.4c-0.3-0.2-0.7-0.3-1-0.4
	c-0.2,0-0.5-0.1-0.7-0.1c-0.2,0-0.3,0.1-0.4,0.1h-0.1l0,0V21l0,0c-0.1,0-0.1,0.1-0.2,0.1c-0.4,0.2-0.7,0.5-1,0.9
	c-0.1,0.3-0.2,0.7-0.4,1.1s-0.2,0.7-0.4,1s-0.3,0.8-0.5,1.2c-0.3,0.5-0.5,1.1-0.6,1.7c-0.1,0.6-0.2,1.2-0.4,1.8
	c-0.3,0.6-0.5,1-0.7,1.5c-0.2,0.6-0.4,1.2-0.6,1.9c-0.2,0.9-0.6,1.8-0.8,2.6c-0.1,0.3-0.2,0.6-0.4,0.9c-0.2,0.3-0.4,0.6-0.4,1
	c-0.1,0.4-0.2,0.7-0.3,1.1s-0.1,0.5-0.1,0.7c0,0.3,0,0.5-0.2,0.8L68,40.4c-0.1,0.8-0.3,1.5-0.6,2.3c-0.2,0.7-0.4,1.4-0.7,2.1
	c-0.2,0.4-0.3,0.8-0.4,1.3c0,0.1-0.1,0.3-0.1,0.4c-0.2,0.4-0.3,0.8-0.4,1.2c-0.1,0.2-0.1,0.4-0.2,0.6s-0.2,0.5-0.3,0.7
	c-0.1,0.3-0.1,0.5-0.1,0.8c-0.2,0.4-0.4,0.9-0.5,1.4c0,0.5-0.1,0.9-0.2,1.4c-0.2,0.6,0,0.8-0.2,1.3c-0.3,0.4-0.5,0.9-0.7,1.4
	c-0.2,0.6-0.4,1.3-0.5,1.9c-0.1,0.2-0.2,0.3-0.3,0.5c-0.3,0.8-0.6,1.6-0.8,2.5c-0.1,0.4-0.1,0.8-0.3,1.2c-0.3,0.8-0.5,1.6-0.8,2.3
	c-0.1,0.5-0.2,1-0.3,1.4c-0.3,0.7-0.5,1.4-0.8,2.1c0,0.1-0.1,0.2-0.2,0.4c-0.4,0.8-0.6,1.6-0.6,2.5c0,0.4-0.1,0.8-0.2,1.2
	c-0.1,0.2-0.2,0.5-0.3,0.7c-0.1,0.1-0.1,0.1-0.2,0.2l0,0h-0.2c-0.3-0.1-0.6-0.1-0.9,0c-0.3,0-0.5,0-0.8,0c-0.3,0-0.6,0-0.9-0.1
	l-0.5,0.3c0.3,0.2-0.1,0.3-0.3,0.4c0.4,0.1,0.8,0.2,1.2,0.2h0.3l1-0.2c0.3,0.1,0.6,0.1,0.9,0.1c0.3,0,0.5,0,0.7,0l0.1-0.3
	c0.2-0.6,0.5-1.2,0.8-2c0.1-0.1,0.1-0.2,0.2-0.3c0,0.1,0,0.2,0.1,0.4c0.1-0.2,0.2-0.2,0.3-0.4c0.3-0.5,0.6-1.1,0.8-1.7
	c0.4-1.2,0.8-2.3,1.1-3.5c0.1-0.4,0.2-0.8,0.3-1.2c0.3-0.5,0.5-1.1,0.5-1.7c0.6-0.5,0.6-0.5,1.2-1.8c0.1-0.4,0.2-0.9,0.2-1.3
	s0.3-1.1,0.4-1.6v-1c0-0.3,0-0.6,0.2-0.9c0.2-0.4,0.3-0.4,0.4-0.5c0.1-0.1,0.2-0.1,0.3-0.2c0.1-0.5,0.3-0.9,0.5-1.4
	c0.2-0.4,0.4-0.8,0.5-1.2s0.2-0.7,0.3-1.1s0.2-0.8,0.4-1.2s0.3-0.7,0.4-1c0.1-0.5,0.3-0.7,0.4-1.1l-0.1-0.1l-0.1,0
	c0.4-0.8,0.6-1.6,0.6-2.5c0,0,0-0.1,0-0.1c0.3-0.8,0.6-1.6,0.8-2.4l1-1.5c0.1-0.1,0.1-0.2,0.2-0.3c0.3-0.7,0.6-1.4,0.9-2.1
	c0-0.1,0.1-0.2,0.1-0.2c0.1-0.6,0.1-1.2,0.3-1.8c0-0.2,0.1-0.3,0.1-0.5c0.3-0.8,0.6-1.7,1-2.5c0-0.3,0.1-0.7,0.1-0.9
	c0.4-0.7,0.6-1.4,0.8-2.2c0-0.2-0.2,0,0-0.6s0.5-0.9,0.8-1.3c0.2-0.3,0.3-0.6,0.4-0.9c0.1-0.5,0.2-0.9,0.2-1.4
	c0.2-0.6,0.5-1.1,0.7-1.7c0.1-0.2,0.2-0.3,0.2-0.5c0-0.1,0-0.1,0-0.2c0-0.1,0-0.3,0.1-0.4s0.1-0.1,0.2-0.1l0.2,0.1
	c0,0,0.1,0.1,0.1,0.1l0.2,0.1l0.2,0.1l0.3,0.2c0.8,0.7,1.7,1.5,2.8,2.4l0.7,0.6c0.4,0.3,0.2,0.4,0.5,0.6c0.2,0,0.3,0.1,0.5,0.2
	l0.2,0.2l0.3,0.2l0.2,0.1c0.1,0,0.3,0.1,0.4,0.1c0.1,0,0.3,0,0.4,0h0.2c0.1,0,0.2,0,0.3-0.1c0.4-0.1,0.8-0.4,1-0.8
	c0.1-0.1,0.1-0.3,0.2-0.4c0-0.1,0-0.2,0.1-0.3c0-0.1,0-0.3,0-0.4c0-0.2-0.1-0.3-0.1-0.5c-0.2-0.5-0.4-1-0.7-1.5l-0.8-1.3
	c-0.3-0.6-0.7-1.1-1-1.7c0-0.2-0.1-0.3-0.2-0.5c-0.1-0.3-0.2-0.5-0.4-0.8c-0.2-0.3-0.4-0.7-0.7-0.9c-0.6-0.5-1.2-1-1.9-1.3
	c-0.5-0.2-0.2-0.3-0.6-0.5l-0.3-0.1l-0.4-0.1h-0.1l0,0c0,0,0,0-0.1,0.1L78,17.6L77.8,18c0,0.1-0.1,0.1-0.2,0.2
	c-0.1,0.1-0.2,0.2-0.2,0.2h-0.1h-0.1h0.1l0,0c0.1,0,0.2,0,0.4,0c0.2,0,0.4,0,0.6,0l0.3,0.1h0.1l0,0l0,0v-0.1
	c0.1-0.2,0.1-0.4,0.2-0.5l0.1-0.4l0.3-0.6c0.2-0.4,0.5-0.7,0.7-1.1c0.2-0.3,0.2-0.6,0.2-0.9v-0.1l0,0l0,0h-0.1l0,0v-0.1
	c0-0.1,0-0.2,0-0.3c-0.1-0.2-0.3-0.4-0.5-0.6c-0.4-0.3-0.8-0.5-1.3-0.7c-0.2-0.1-0.4-0.2-0.6-0.3h0.1c-0.1,0-0.3-0.1-0.4-0.2
	l-0.2-0.1h-0.1c-0.9-0.3-1.7-0.5-2.6-0.8c-0.8-0.3-1.6-0.4-2.4-0.4H71c-0.3,0-0.5,0-0.8,0.1c-0.3,0-0.5,0.1-0.8,0.3
	c-0.3,0.2-0.5,0.4-0.7,0.7c-0.1,0.1-0.1,0.2-0.2,0.4v0.1l0,0l0,0l0.3,0.6c0,0.1,0.1,0.1,0.2,0.1c0.1,0.2,0.1,0.3,0.1,0.4
	s0.1,0.2,0,0.2H69c-0.4-0.4-0.5-0.6-0.7-0.7c-0.1-0.1-0.2-0.2-0.3-0.2l-0.1-0.1L67.6,13c-0.2-0.1-0.4-0.3-0.6-0.5
	c-0.1-0.1-0.2-0.2-0.3-0.3l-1-0.5l-1.3-1c-0.2-0.2-0.5-0.3-0.8-0.4c0.1,0.1,0.6,0.4,0.4,0.5c-0.4-0.2-0.8-0.5-1.1-0.8
	c-0.1-0.1-0.2-0.3-0.4-0.3c-0.3-0.2-0.6-0.4-0.9-0.6c-0.2-0.2-0.5-0.3-0.7-0.4c-0.2,0-0.4,0-0.6,0c-0.2,0.1-0.5,0.1-0.7,0.2
	c-0.3,0-0.6,0.2-0.9,0.4c-0.2,0.2-0.3,0.3-0.5,0.5c-0.2,0.4-0.5,0.7-0.7,1.1c-0.2,0.4-0.3,0.6-0.5,0.9c-0.4,0.8-0.7,1.7-0.8,2.6
	C56.1,15,56,15.6,56,16.1c0,0.4-0.1,0.7-0.2,1.1c-0.2,0.6-0.4,1.1-0.5,1.7c-0.1,0.3-0.1,0.6-0.2,0.8c-0.1,0.4-0.2,0.8-0.2,1.2
	c0,0.2,0.1,0.5,0.2,0.7c0,0.1,0,0.2,0.1,0.2c0.5,0.8,0.8,1.1,2.1,1.5c0.2,0,0.4,0.1,0.5,0.1H58h0.3c0.2,0,0.4,0.1,0.6,0
	c0.7,0,1.3,0.1,2,0.2l0.8,0.1c0.5-0.1,1.1-0.1,1.7,0c0.2,0,0.3,0,0.5,0c0.4,0,0.8,0,1.1,0.1c0.1,0,0.3,0,0.4,0.1
	c0.1,0,0.2,0.1,0.2,0.1c0.1,0.1,0.1,0.2,0,0.3l0,0h0.1c0.1,0,0.1,0,0.2,0c0,0,0.1,0,0,0.1c0,0.2,0,0.4-0.1,0.6
	c0,0.1-0.1,0.2-0.1,0.2c-0.3,0.4-0.4,0.9-0.4,1.3c-0.2,0.6-0.2,1.3-0.5,1.9C64.7,28.8,64.7,29.1,64.7,29.3L64.7,29.3z M55.4,19.5
	c0,0,0,0.1,0,0.1c0,0.1,0,0.2,0,0.2s-0.1,0-0.1-0.1s0-0.5,0-0.7C55.5,18.9,55.4,19.3,55.4,19.5z M62.4,59.2L62.4,59.2
	c-0.1,0-0.1-0.1-0.1-0.1s0,0,0,0L62.4,59.2z M56.6,13.3L56.6,13.3c0,0,0-0.1,0-0.1l0,0V13.3z"/>
<polygon style="fill:#132645;" points="62.2,39.5 62.2,39.4 62.2,39.5 "/>
<path style="fill:#132645;" d="M64.6,29.9l-0.1,0.1C64.5,30.1,64.5,30,64.6,29.9L64.6,29.9L64.6,29.9z"/>
<path style="fill:#132645;" d="M64.6,29.6c0-0.1,0-0.2,0.1-0.3l0,0L64.6,29.6L64.6,29.6z"/>
<polygon style="fill:#132645;" points="64.6,30 64.6,29.6 64.6,29.7 64.7,29.7 64.7,29.6 64.6,30 64.6,30 64.6,29.9 "/>
<polygon style="fill:#132645;" points="63.7,33.1 63.7,33.2 63.7,33.1 "/>
<path style="fill:#132645;" d="M77.7,12.9L78,13h-0.1L77.7,12.9L77.7,12.9z"/>
<polygon style="fill:#132645;" points="78.9,20.7 79,20.8 78.9,20.7 "/>
<path style="fill:#FFFFFF;" d="M10.9,52.7c0.7-1,17.1,1.2,31.2,1s25.3-1.5,25.6-0.4s1.2,41.3,0,41.3s-55,1.5-55.7,0
	S8.7,55.6,10.9,52.7z"/>
<path style="fill:#132645;" d="M59.3,51.5l-0.4,0.1H59c-0.1,0.1-0.3,0.1-0.4,0l0,0c-0.7,0.1-0.9-0.1-1.5-0.1
	c-0.3,0.1-0.5,0.2-0.8,0.2c-0.4,0-0.8,0-1.3,0h0C54.5,51.9,54,52,53.4,52c-0.1,0-0.2,0.1-0.3,0.1c-0.3,0-0.5,0-0.7,0
	c-0.5,0-1,0-1.5,0c-0.4,0-0.5-0.1-1-0.1l-1.2,0.1c-0.2,0-0.5,0-0.7-0.1l0,0c-0.8,0-1.6,0-2.4,0c-0.8,0-1.6,0.1-2.3,0.2
	c-0.5-0.1-1.1-0.1-1.6-0.1c-0.6,0.2-1.3,0.3-1.9,0.3c-0.5-0.1-0.9-0.2-1.4-0.2c-0.5,0-0.9-0.1-1.3-0.1c-0.3,0-0.6,0-0.8,0.1
	c-0.3,0.2-0.7,0.2-1.1,0.1l-0.7-0.1c-0.4,0.1-0.7,0.1-1.1,0.2c-0.5,0-1,0-1.5,0c-0.6-0.1-1.2-0.1-1.9-0.1H29
	c-0.2-0.1-0.5-0.1-0.7-0.2c-0.4-0.2-0.8-0.3-1.3-0.4c-0.4-0.1-0.7-0.1-1.1,0c-0.2,0-0.4-0.1-0.6-0.1h-0.8l-1-0.2L22,51.5
	c-0.5,0.1-1,0.1-1.5,0c-0.3,0-0.6,0-1,0l-0.9,0h-1.6c-0.4-0.1-0.8-0.2-1.2-0.2l-2-0.1c-0.5,0.2-1.1,0.3-1.6,0.2
	c-0.2,0-0.3,0-0.5,0.1c-0.3,0.2-0.6,0.6-0.9,0.9c0.2-0.1,0.4-0.1,0.5-0.1c0.1,0,0.3,0.1,0.4,0.1c0.3,0.1,0.6,0.2,0.9,0.2
	c0.8,0.2,1.6,0.3,2.4,0.3c0.2,0,0.4,0,0.6,0.1l0.5,0.2c0.5,0,0.9,0,1.4,0c1.2,0,2.3,0,3.5-0.1c0.4,0,0.4,0,1.1,0.2
	c0.4,0.1,0.8,0.2,1.1,0.4l1.5,0.1c0.8,0.2,1.6,0.3,2.3,0.3c0.8,0,1.6,0.1,2.4,0.3c0,0.1-0.1,0.2,0,0.2c0.5,0.2,1,0.3,1.6,0.4
	c0.7,0,1.3,0,2-0.1c0.5-0.1,1-0.1,1.5-0.1c0.3,0,0.7,0,1,0c0.7-0.1,1.5-0.1,2.2,0c0.3,0.1,0.6,0.1,1,0h-0.2h0.1
	c0.4-0.1,0.7-0.1,1.1,0c0.2,0,0.3,0,0.5,0h2.5c0.1,0,0.2,0,0.2,0c0.7-0.2,1.5-0.2,2.2-0.2c0.6,0,1.3,0,2,0l0.4-0.1h-0.2h0.1h0.1
	c0.5,0,0.9-0.1,1.4-0.1c0.2,0,0.4,0,0.7,0c0.4-0.1,0.8-0.1,1.2-0.1c0.5,0,0.7-0.2,1.3-0.1c0.3,0.2,0.7,0.2,1.1,0.1
	c0.3,0,0.7,0,1,0.1l2.2-0.3c0.3,0,0.6-0.1,0.9-0.1h1.6c0.3,0,0.6,0,0.9,0.1c0.5,0.1,1,0.1,1.5,0.1c0.3,0,0.7,0,1,0
	c0.4,0,0.8,0,1.2-0.1h1.6h0.8h0.4c0,0,0.1,0,0.2,0c0.1,0,0.2,0,0.3,0s0.2,0,0.2,0.1s-0.1,0.2-0.2,0.2c0,0,0,0,0,0.1l0,0
	c0,0.1,0,0.2,0,0.2l0.1,0.6c0,0.1,0,0.2,0,0.3c-0.1,0.2-0.1,0.5-0.1,0.8c0,0.1,0,0.3,0.1,0.4c0.2,0.7,0.2,1.3,0.2,2
	c0,0.9,0,1.8,0.2,2.7c0.1,0.7,0.1,1.3,0.1,2c-0.1,0.6-0.2,1.2-0.2,1.9c0.2,0.8,0.3,1.6,0.2,2.4c-0.1,0.3-0.1,0.6,0,0.9
	c0.1,0.3,0,0.9,0.1,1.1c0.2,0.6,0.2,1.2,0.2,1.8c0,0.1,0,0.2,0,0.3S67,72.2,67,72.3c-0.1,0.5-0.1,1,0,1.5c0,0.2,0.1,0.4,0.1,0.5
	c0,0.6-0.1,1.2-0.1,1.7c0,0.6,0,1.1-0.1,1.7c0,0.1,0,0.2,0.1,0.3c0,0.2,0,0.4,0,0.6c0,0.2,0,0.3-0.1,0.4c-0.1,1,0,2.2-0.1,3.2
	c0.1,1,0,2.1,0.1,3.1c0,0.3,0,0.7,0.1,0.9s0,0.3,0,0.4c-0.2,0.9-0.3,1.9-0.2,2.9c0,0.2,0,0.4,0,0.7c0,0.4,0,0.6,0.1,0.7
	s0.1,0.1,0.1,0.2c0,0.5,0,0.9,0,1.4c0,0.1,0,0.2,0,0.3V93c0,0.1,0,0.3,0,0.4c0,0.2-0.3,0.1-0.4,0h-0.2h-0.3
	c-1.7,0.1-3.2-0.1-4.7-0.2c-0.5-0.1-1.1-0.1-1.6-0.1h-1l-1.9,0.1c-0.3,0.1-0.7,0-1-0.1c-0.1,0-0.1,0-0.2-0.1l-1.6,0.1
	c-0.8,0.3-1.5,0.4-2.3,0.5l0,0c-0.7,0.1-1.4,0.1-2.2,0.1l0.8-0.2l-1.5-0.2l-0.9,0.1c-0.7,0-1.4-0.1-2.1-0.3c-0.7-0.2-1.3-0.2-2,0
	h-0.3h-1.1c-0.2,0-0.3,0-0.5,0c-0.7,0.1-1.5,0.1-2.2,0.3c-0.3,0.1-0.8,0.1-1.2,0.1h-1.4c0,0.1,0,0.1-0.1,0.1
	c-0.2,0.1-0.4,0.1-0.6,0.1c-0.3,0-0.5,0-0.5-0.1s-0.8-0.2-1.2-0.2s-0.9,0-1.4,0c-0.3,0-0.7,0-1,0.1c-0.4,0.1-0.6,0-1,0
	c-0.6,0.2-1.2,0.3-1.8,0.2c-0.4,0-0.9,0-1.4,0c-0.6,0-1.2,0-1.8,0.1c-0.6,0.1-1.3,0.2-1.9,0.2c-0.7-0.1-1.2-0.2-1.8-0.2
	s-1.4,0-2.1,0c-1,0.1-2,0-3,0c-0.3,0-0.7,0-1-0.2c-0.4-0.1-0.8-0.2-1.2-0.2h-1.1c-0.3,0-0.5,0-0.7,0c-0.1,0.1-0.3,0.1-0.4,0
	c-0.1-0.1-0.2-0.1-0.2-0.2c0-0.1,0-0.3,0.1-0.4c0-0.1-0.1-0.2-0.1-0.2l-0.1-0.6c-0.1-0.4-0.1-0.9-0.1-1.3c-0.1-0.8-0.2-1.6-0.1-2.4
	c0-0.5,0-1-0.2-1.4c0-0.2,0-0.3,0-0.5c0-0.5,0-0.9-0.1-1.4c0-0.2,0-0.4,0-0.6c0-0.3,0-0.5,0-0.8c-0.1-0.2-0.1-0.5-0.2-0.7
	c0-0.5,0-1.1,0-1.6c-0.1-0.5-0.3-1-0.3-1.4c-0.1-0.7-0.2-0.8-0.3-1.4c0.1-0.5,0.2-1.1,0.2-1.6c0-0.8-0.2-1.4-0.2-2.2
	c0.1-0.2,0.1-0.4,0.1-0.6c0-0.9,0-1.8-0.1-2.7c-0.1-0.4-0.1-0.9-0.1-1.3c0-0.9,0-1.8,0.1-2.6c-0.1-0.6-0.1-1-0.2-1.5
	c0.1-0.8,0.1-1.6,0.1-2.4c0-0.1,0-0.3,0.1-0.4c0.1-0.9,0-1.9-0.2-2.8c-0.1-0.4-0.1-0.9-0.1-1.3c0-0.4,0.1-0.8,0.1-1.2
	c0.1-0.2,0.1-0.5,0.2-0.7c0-0.1,0.1-0.3,0.1-0.4c0.1-0.5,0.1-1.1,0.1-1.6c0-0.3,0-0.5,0.1-0.8c0.1-0.3,0.1-0.5,0.2-0.8
	c-0.1-0.1-0.1-0.3-0.2-0.4c-0.2,0.1-0.2-0.1-0.3-0.3c-0.3,0.3-0.5,0.6-0.6,1l-0.1,0.3c0,0.3,0,0.7,0,1.1c-0.1,0.4-0.2,0.7-0.2,1.1
	c0,0.5-0.1,0.9-0.1,1.3c-0.1,0.8-0.3,1.5-0.3,2.4c0,0.1-0.1,0.2-0.1,0.4c-0.1-0.1-0.1-0.2-0.2-0.4c-0.1,0.2-0.1,0.3-0.2,0.5
	c-0.2,0.7-0.3,1.3-0.3,2c-0.1,1.3-0.1,2.7,0,4c0,0.4,0.1,0.9,0.1,1.3c-0.1,0.6-0.1,1.3,0,1.9c-0.4,0.7-0.4,0.8-0.6,2.3
	c0.1,0.5,0.2,1,0.3,1.4s0.1,1.3,0.2,1.8c0.1,0.4,0.2,0.7,0.3,1c0.1,0.3,0.2,0.7,0.2,1c0,0.5-0.1,0.6-0.2,0.6s-0.1,0.2-0.2,0.3
	c0,0.5,0,1.1,0,1.6c0,0.5,0,0.9-0.1,1.4s0.1,0.8,0.1,1.2s0.1,0.9,0.1,1.4s0,0.8,0.1,1.2c0.1,0.5-0.1,0.8,0,1.3h0.1h0.1
	c-0.1,0.9,0.1,1.8,0.4,2.7c0,0,0,0.1,0,0.2c0,0.9,0,1.9,0.2,2.8c-0.1,0.8-0.2,1.6-0.1,2.4c0,0.2,0.1,0.4,0.1,0.6
	c0,0.1,0.1,0.2,0.1,0.3l0.1,0.1v0.1l0,0l0,0l0,0l0,0c0.1,0.1,0.2,0.2,0.4,0.3c0.3,0.2,0.6,0.3,0.9,0.4c0.3,0.1,0.6,0.1,0.9,0.2
	l0.6,0.1h0.3c0.5-0.1,1.4-0.1,2-0.2c0.2,0,0.3,0,0.5,0l2.9,0.2l1-0.1c0.8,0.1,1.7,0.2,2.6,0.1c0.2-0.1-0.1-0.2,0.6-0.2l1.6,0.3
	l1.1,0.1l1.5-0.2c0.7,0,1.4,0,2.1,0c0.7,0,1.3,0,2-0.1c0.5,0,0.9,0.1,1.4,0.1s1,0,1.6-0.1c1.3,0.2,2.7,0.3,4.1,0.3l1,0.1
	c0.5,0,0.4,0.1,0.8,0.2c0.3-0.1,0.6-0.1,0.9,0c0.3-0.1,0.7-0.2,1-0.2c1.1-0.1,1.9-0.3,3-0.3l2-0.1c0.2,0,0.3,0.1,0.6,0.1
	c0.6,0.1,1.2,0.1,1.8,0.1c0.8,0,1.3,0.1,2,0.1c0.5,0,0.3,0.2,0.7,0.2h0.3l1-0.2c1,0.1,2.1,0.1,3.1,0c0.5,0.2,1,0.3,1.5,0.2l0.8-0.1
	c0.1,0,0.3,0,0.4,0l0,0c0.2,0,0.3,0,0.5,0c0.9,0,1.8,0,2.8,0c0.8,0,1.6,0,2.4-0.2c0.2,0,0.3-0.1,0.5-0.1l0.9-0.1
	c0.6,0,1.1-0.2,1.5-0.6c0.3-0.3,0.5-0.6,0.6-0.9C69,94,69,93.5,69,93c0-0.2,0-0.4,0-0.5v-0.4l-0.2,0.3c0-0.4,0-0.7,0-1s0-0.6,0-0.9
	c0.3-1,0.4-1.9,0.3-2.9c0.1-0.5,0.3-1,0.4-1.5c0-0.1,0-0.3,0-0.5c0-0.4-0.1-0.8-0.1-1.3s0.1-1.1,0.2-1.7c0-0.3,0-0.7-0.1-1
	c-0.1,0.2,0,0.8-0.2,0.6c-0.1-0.5,0-1,0.1-1.5c0.1-0.2,0.1-0.4,0.1-0.5c0-0.4,0.1-0.8,0.1-1.1c0-0.5-0.2-0.4-0.2-1
	c0.3-0.6,0.3-0.6,0.3-2c0-0.3,0-0.7,0-1c0.1-0.9,0-1.9-0.1-2.8c-0.1-0.6-0.1-1.2-0.3-1.7c-0.1-0.4-0.1-0.8-0.1-1.1
	c0.1-0.6,0.1-1.2,0.1-1.8c0-0.5,0.1-1,0.2-1.4c0-0.2-0.1-0.3-0.1-0.4c-0.1-0.6-0.1-1.3-0.1-1.9c0-0.1,0-0.2,0-0.3
	c-0.1-0.3-0.1-0.9-0.2-1.2c-0.1-0.7-0.2-1.4-0.1-2.1c0-0.3,0-0.5,0-0.8c-0.2-0.6-0.2-1.2-0.2-1.8c0-0.2,0-0.3,0-0.5
	c-0.1-0.6-0.1-1.3,0.2-1.9c0-0.1,0-0.2,0-0.4V54c0-0.4,0-0.9-0.1-1.3c-0.1-0.1-0.1-0.3-0.2-0.4c-0.1,0-0.1-0.1-0.2-0.2
	c0,0-0.1-0.1-0.1-0.1c-0.9-0.5-1.9-0.7-2.9-0.6c-0.2,0-0.4,0.1-0.6,0c-0.5,0-0.9,0-1.3,0.1c-0.1,0-0.2,0-0.3,0c-0.5-0.2-1-0.2-1.5,0
	c-0.7,0-1.4,0.2-2.2,0.1c-0.2,0-0.5,0-0.7,0L59.3,51.5z M69.3,66.9c0-0.1,0-0.2,0-0.3c0,0,0.1,0,0.1,0c0,0.2,0.1,0.4,0.1,0.7
	C69.4,67.6,69.3,67.2,69.3,66.9L69.3,66.9z M11.2,72.7L11.2,72.7v0.1l0,0V72.7z M69.8,73.5L69.8,73.5v0.1l0,0V73.5z"/>
<polygon style="fill:#132645;" points="48,52.2 48,52.1 47.9,52.1 "/>
<path style="fill:#132645;" d="M58.6,51.5h-0.2H58.6L58.6,51.5L58.6,51.5z"/>
<path style="fill:#132645;" d="M58.9,51.5c0.1-0.1,0.2-0.1,0.3,0l0,0H58.9L58.9,51.5z"/>
<polygon style="fill:#132645;" points="58.5,51.5 58.9,51.5 58.9,51.5 58.9,51.6 59,51.6 58.5,51.6 58.6,51.6 58.6,51.5 "/>
<polygon style="fill:#132645;" points="55.1,51.7 54.9,51.7 55,51.7 "/>
<path style="fill:#132645;" d="M60.1,96.6h-0.1C59.9,96.6,60,96.6,60.1,96.6C60,96.6,60.1,96.6,60.1,96.6z"/>
<polygon style="fill:#132645;" points="51.5,93.7 51.4,93.7 51.5,93.7 "/>
</svg>
