<?xml version="1.0" encoding="utf-8"?>
<!-- Generator: Adobe Illustrator 23.0.1, SVG Export Plug-In . SVG Version: 6.00 Build 0)  -->
<svg version="1.1" id="Layer_1" xmlns="http://www.w3.org/2000/svg" xmlns:xlink="http://www.w3.org/1999/xlink" x="0px" y="0px"
	 viewBox="0 0 97 32" style="enable-background:new 0 0 97 32;" xml:space="preserve">
<style type="text/css">
	.st0{fill:#434352;}
</style>
<title>Shape</title>
<desc>Created with Sketch.</desc>
<g id="Page-1">
	<g id="Homepage-v1" transform="translate(-284.000000, -997.000000)">
		<g id="Group-29" transform="translate(210.000000, 905.000000)">
			<path id="Shape" class="st0" d="M95.6,104c1.6,1.3,2.4,3.3,2.4,6.1V124h-7.7v-12.9c0-0.6-0.2-1.1-0.6-1.5
				c-0.4-0.4-0.9-0.6-1.5-0.6h-4.5c-0.6,0-1,0.2-1.4,0.6c-0.4,0.4-0.6,0.9-0.6,1.5V124H74V92h7.7v10.4c0.1,0,0.4-0.1,0.8-0.2
				c0.4-0.1,1-0.2,1.7-0.2h4.9C91.9,102,94,102.7,95.6,104z M119.8,102h7.7v13.5c0,2.5-0.7,4.6-2.1,6.1c-1.4,1.6-3.3,2.4-5.6,2.4
				h-7.6c-2.7,0-4.8-0.7-6.4-2.2c-1.6-1.5-2.4-3.6-2.4-6.3V102h7.7v12.9c0,0.6,0.2,1,0.6,1.4c0.4,0.4,0.9,0.6,1.4,0.6h4.5
				c0.6,0,1.1-0.2,1.5-0.6c0.4-0.4,0.6-0.9,0.6-1.4V102z M133.4,92h7.7v32h-7.7V92z M171,102v13.5c0,2.5-0.7,4.6-2.1,6.1
				s-3.3,2.4-5.6,2.4h-7.5c-2.7,0-4.8-0.7-6.4-2.2c-1.6-1.5-2.4-3.6-2.4-6.3V102h7.7v12.9c0,0.6,0.2,1,0.6,1.4
				c0.4,0.4,0.9,0.6,1.4,0.6h4.5c0.6,0,1-0.2,1.4-0.6c0.4-0.4,0.6-0.9,0.6-1.4V102H171z"/>
		</g>
	</g>
</g>
</svg>
