<?xml version="1.0" encoding="utf-8"?>
<!-- Generator: Adobe Illustrator 23.0.1, SVG Export Plug-In . SVG Version: 6.00 Build 0)  -->
<svg version="1.1" id="Layer_1" xmlns="http://www.w3.org/2000/svg" xmlns:xlink="http://www.w3.org/1999/xlink" x="0px" y="0px"
	 viewBox="0 0 136 28" style="enable-background:new 0 0 136 28;" xml:space="preserve">
<style type="text/css">
	.st0{fill-rule:evenodd;clip-rule:evenodd;}
</style>
<title>Usual wines-2</title>
<desc>Created with Sketch.</desc>
<g id="Page-1">
	<g id="Homepage-v1" transform="translate(-966.000000, -999.000000)">
		<g id="Group-29" transform="translate(210.000000, 905.000000)">
			<g id="Usual-wines-2" transform="translate(756.000000, 94.000000)">
				<path id="Shape" class="st0" d="M19.7,0.5v17.6c0,3.1-0.8,5.5-2.5,7.2c-1.7,1.7-4.1,2.6-7.4,2.6c-3.3,0-5.7-0.9-7.4-2.6
					C0.8,23.6,0,21.2,0,18.2V0.5h5.2v17.6c0,1.6,0.4,2.8,1.1,3.7s1.9,1.3,3.6,1.3c1.6,0,2.8-0.4,3.6-1.3c0.8-0.9,1.1-2.1,1.1-3.7
					V0.5H19.7z M43.9,8.8c0-1.1-0.4-2-1.3-2.8c-0.8-0.8-2-1.2-3.6-1.2c-1.3,0-2.3,0.3-3.1,0.8s-1.1,1.2-1.1,2.1
					c0,0.5,0.1,0.9,0.3,1.2c0.2,0.4,0.5,0.7,1,1c0.5,0.3,1.1,0.6,1.8,0.8c0.7,0.2,1.7,0.4,2.8,0.7c2.9,0.5,5.1,1.4,6.6,2.6
					c1.5,1.2,2.3,3,2.3,5.3v0.5c0,1.3-0.2,2.4-0.7,3.4c-0.4,1-1.1,1.9-2,2.6c-0.9,0.7-1.9,1.3-3.1,1.7c-1.2,0.4-2.6,0.6-4.1,0.6
					c-1.8,0-3.4-0.2-4.8-0.7c-1.4-0.5-2.5-1.2-3.4-2.1c-0.9-0.9-1.6-1.9-2.1-3.1c-0.5-1.2-0.7-2.5-0.7-3.9V17h5.2v0.9
					c0,1.6,0.5,2.9,1.4,3.9c1,1,2.4,1.4,4.4,1.4c1.6,0,2.7-0.3,3.5-1c0.8-0.7,1.1-1.5,1.1-2.4c0-0.4-0.1-0.9-0.2-1.3
					c-0.2-0.4-0.4-0.8-0.8-1.1c-0.4-0.3-0.9-0.6-1.6-0.9c-0.7-0.3-1.5-0.5-2.6-0.7c-1.4-0.2-2.6-0.5-3.8-0.9c-1.1-0.4-2.1-0.9-3-1.5
					c-0.8-0.6-1.5-1.4-2-2.3c-0.5-0.9-0.7-2.1-0.7-3.4V7.7c0-1.1,0.2-2.1,0.7-3.1c0.5-0.9,1.1-1.8,1.9-2.4C33,1.5,34,1,35.1,0.6
					S37.6,0,39,0c1.6,0,3.1,0.2,4.3,0.7c1.3,0.4,2.3,1.1,3.2,1.8c0.8,0.7,1.5,1.6,1.9,2.7c0.4,1,0.6,2.1,0.6,3.2v1.4h-5.2L43.9,8.8
					L43.9,8.8z M78.4,0.5v17.6c0,3.1-0.8,5.5-2.5,7.2c-1.7,1.7-4.1,2.6-7.4,2.6c-3.3,0-5.7-0.9-7.4-2.6c-1.7-1.7-2.5-4.2-2.5-7.2
					V0.5h5.2v17.6c0,1.6,0.4,2.8,1.1,3.7c0.8,0.9,1.9,1.3,3.6,1.3s2.8-0.4,3.6-1.3c0.8-0.9,1.1-2.1,1.1-3.7V0.5L78.4,0.5L78.4,0.5z
					 M102.5,21.7h-9.3l-1.3,5.8h-5.4L93,0.5h9.7l6.5,26.9h-5.4L102.5,21.7L102.5,21.7z M94.3,16.8h7.1L98.2,3.1h-0.7L94.3,16.8
					L94.3,16.8z M118.4,0.5h5.2v22.1H136v4.8h-17.6V0.5L118.4,0.5z"/>
			</g>
		</g>
	</g>
</g>
</svg>
