<?xml version="1.0" encoding="utf-8"?>
<!-- Generator: Adobe Illustrator 23.0.1, SVG Export Plug-In . SVG Version: 6.00 Build 0)  -->
<svg version="1.1" id="Layer_1" xmlns="http://www.w3.org/2000/svg" xmlns:xlink="http://www.w3.org/1999/xlink" x="0px" y="0px"
	 viewBox="0 0 142 43" style="enable-background:new 0 0 142 43;" xml:space="preserve">
<style type="text/css">
	.st0{fill-rule:evenodd;clip-rule:evenodd;fill:#FF9900;}
	.st1{fill-rule:evenodd;clip-rule:evenodd;}
</style>
<title>Amazon_logo</title>
<desc>Created with Sketch.</desc>
<g id="Page-1">
	<g id="Homepage-v1" transform="translate(-496.000000, -992.000000)">
		<g id="Group-29" transform="translate(210.000000, 905.000000)">
			<g id="Amazon_logo" transform="translate(286.000000, 87.000000)">
				<path id="path8" class="st0" d="M87.4,34c-8.3,5.9-20.3,9-30.6,9c-14.5,0-27.5-5.2-37.4-13.8c-0.8-0.7-0.1-1.6,0.9-1.1
					c10.7,6,23.8,9.6,37.4,9.6c9.2,0,19.3-1.8,28.6-5.6C87.6,31.5,88.8,33,87.4,34"/>
				<path id="path10" class="st0" d="M91.2,29.7c-1-1.4-6.9-0.6-9.5-0.3c-0.8,0.1-0.9-0.6-0.2-1.1c4.7-3.3,12.3-2.4,13.2-1.3
					c0.9,1.1-0.2,8.9-4.6,12.7c-0.7,0.6-1.3,0.3-1-0.5C90.1,36.7,92.3,31.1,91.2,29.7"/>
				<path id="path12" class="st1" d="M81.8,5.1V1.8c0-0.5,0.4-0.8,0.8-0.8h14.2c0.5,0,0.8,0.3,0.8,0.8v2.8c0,0.5-0.4,1.1-1.1,2.1
					l-7.3,10.9c2.7-0.1,5.6,0.4,8.1,1.8c0.6,0.3,0.7,0.8,0.8,1.3v3.5c0,0.5-0.5,1-1,0.7c-4.4-2.4-10.1-2.6-15,0
					c-0.5,0.3-1-0.3-1-0.8v-3.3c0-0.5,0-1.4,0.5-2.3L90,5.9h-7.4C82.2,5.9,81.8,5.6,81.8,5.1"/>
				<path id="path14" class="st1" d="M29.1,24h-4.3c-0.4,0-0.7-0.3-0.8-0.7v-22c0-0.4,0.4-0.8,0.8-0.8h4c0.4,0,0.8,0.3,0.8,0.7v2.9
					h0.1c1-2.8,3-4.1,5.7-4.1c2.7,0,4.4,1.3,5.6,4.1C42,1.3,44.4,0,46.9,0c1.8,0,3.8,0.7,5,2.4C53.3,4.3,53,7,53,9.3l0,13.9
					c0,0.4-0.4,0.8-0.8,0.8h-4.3c-0.4,0-0.8-0.4-0.8-0.8V11.5c0-0.9,0.1-3.2-0.1-4.1c-0.3-1.5-1.3-1.9-2.5-1.9c-1,0-2.1,0.7-2.6,1.8
					c-0.4,1.1-0.4,3-0.4,4.2v11.7c0,0.4-0.4,0.8-0.8,0.8h-4.3c-0.4,0-0.8-0.4-0.8-0.8l0-11.7c0-2.5,0.4-6.1-2.7-6.1
					c-3.1,0-3,3.5-3,6.1v11.7C29.9,23.6,29.5,24,29.1,24"/>
				<path id="path16" class="st1" d="M110.9,0c6.5,0,10.1,5.6,10.1,12.7c0,6.9-3.9,12.3-10.1,12.3c-6.4,0-9.9-5.6-9.9-12.5
					C101,5.4,104.5,0,110.9,0 M111,4.6c-3.2,0-3.5,4.4-3.5,7.1c0,2.8,0,8.6,3.4,8.6c3.4,0,3.6-4.7,3.6-7.6c0-1.9-0.1-4.2-0.7-6
					C113.3,5.2,112.4,4.6,111,4.6"/>
				<path id="path18" class="st1" d="M129.2,24h-4.4c-0.4,0-0.8-0.4-0.8-0.8l0-22c0-0.4,0.4-0.7,0.8-0.7h4.1c0.4,0,0.7,0.3,0.8,0.6
					v3.4h0.1c1.2-3,2.9-4.4,6-4.4c2,0,3.9,0.7,5.1,2.6c1.1,1.8,1.1,4.7,1.1,6.9v13.9c0,0.4-0.4,0.7-0.8,0.7h-4.4
					c-0.4,0-0.7-0.3-0.8-0.7v-12c0-2.4,0.3-5.9-2.7-5.9c-1.1,0-2,0.7-2.5,1.8c-0.6,1.3-0.7,2.7-0.7,4.2v11.9
					C130,23.6,129.6,24,129.2,24"/>
				<path id="path28" class="st1" d="M70.9,14c0,1.7,0,3.1-0.8,4.6c-0.7,1.2-1.8,2-3,2c-1.7,0-2.7-1.3-2.7-3.2
					c0-3.7,3.4-4.4,6.5-4.4V14 M75.4,24.6c-0.3,0.3-0.7,0.3-1,0.1c-1.5-1.2-1.7-1.8-2.5-2.9c-2.4,2.4-4.1,3.2-7.2,3.2
					c-3.7,0-6.6-2.3-6.6-6.8c0-3.6,1.9-6,4.7-7.1c2.4-1,5.7-1.2,8.3-1.5V8.9c0-1,0.1-2.3-0.5-3.2c-0.5-0.8-1.6-1.1-2.5-1.1
					c-1.7,0-3.2,0.9-3.5,2.6c-0.1,0.4-0.4,0.8-0.8,0.8l-4.3-0.5c-0.4-0.1-0.8-0.4-0.7-0.9c1-5.1,5.6-6.7,9.8-6.7
					c2.1,0,4.9,0.6,6.6,2.2c2.1,2,1.9,4.6,1.9,7.5v6.8c0,2,0.9,2.9,1.7,4.1c0.3,0.4,0.3,0.9,0,1.2C77.9,22.5,76.3,23.9,75.4,24.6
					L75.4,24.6"/>
				<path id="path30" class="st1" d="M12.9,14c0,1.7,0,3.1-0.8,4.6c-0.7,1.2-1.8,2-3,2c-1.7,0-2.7-1.3-2.7-3.2
					c0-3.7,3.4-4.4,6.5-4.4V14 M17.4,24.6c-0.3,0.3-0.7,0.3-1,0.1c-1.5-1.2-1.7-1.8-2.5-2.9C11.4,24.3,9.7,25,6.6,25
					C2.9,25,0,22.7,0,18.2c0-3.6,1.9-6,4.7-7.1c2.4-1,5.7-1.2,8.3-1.5V8.9c0-1,0.1-2.3-0.5-3.2C11.9,5,10.8,4.6,9.9,4.6
					c-1.7,0-3.2,0.9-3.5,2.6C6.3,7.7,6,8,5.7,8.1L1.4,7.6C1,7.5,0.6,7.2,0.7,6.7C1.7,1.6,6.4,0,10.6,0c2.1,0,4.9,0.6,6.6,2.2
					c2.1,2,1.9,4.6,1.9,7.5v6.8c0,2,0.9,2.9,1.7,4.1c0.3,0.4,0.3,0.9,0,1.2C19.9,22.5,18.3,23.9,17.4,24.6L17.4,24.6"/>
			</g>
		</g>
	</g>
</g>
</svg>
