<?xml version="1.0" encoding="utf-8"?>
<!-- Generator: Adobe Illustrator 23.0.1, SVG Export Plug-In . SVG Version: 6.00 Build 0)  -->
<svg version="1.1" id="Layer_1" xmlns="http://www.w3.org/2000/svg" xmlns:xlink="http://www.w3.org/1999/xlink" x="0px" y="0px"
	 viewBox="0 0 130 23" style="enable-background:new 0 0 130 23;" xml:space="preserve">
<title>Sony_logo</title>
<desc>Created with Sketch.</desc>
<g id="Page-1">
	<g id="Homepage-v1" transform="translate(-737.000000, -1002.000000)">
		<g id="Group-29" transform="translate(210.000000, 905.000000)">
			<g id="Sony_logo" transform="translate(527.000000, 97.000000)">
				<path id="path4258" d="M46.3,23c-4.7,0-9.1-1.4-12-4.1c-2.2-2-3.3-4.7-3.3-7.5c0-2.7,1.1-5.5,3.3-7.4c2.7-2.5,7.5-4,12-4
					c5,0,9,1.3,12,4c2.2,2,3.2,4.7,3.2,7.4c0,2.7-1.1,5.5-3.2,7.5C55.5,21.6,51,23,46.3,23v-3c2.5,0,4.8-0.9,6.4-2.5
					c1.6-1.6,2.4-3.6,2.4-6c0-2.3-0.8-4.5-2.4-6c-1.6-1.6-4-2.5-6.4-2.5c-2.5,0-4.8,0.9-6.4,2.5c-1.5,1.5-2.4,3.7-2.4,6
					c0,2.3,0.8,4.5,2.4,6c1.6,1.6,4,2.5,6.4,2.5V23L46.3,23z M11.9,0C9.4,0,6.5,0.5,4.1,1.6C1.8,2.6,0,4.2,0,6.9
					c0,2.4,1.5,3.9,1.5,3.8C2.1,11.3,3.2,12.4,6,13c1.2,0.3,3.9,0.7,6.5,1c2.6,0.3,5.2,0.5,6.2,0.8c0.8,0.2,2.2,0.5,2.2,2.1
					c0,1.6-1.5,2-1.7,2.1c-0.3,0.1-2,0.9-5.2,0.9c-2.3,0-5.1-0.7-6.2-1.1c-1.2-0.4-2.4-1-3.6-2.4c-0.3-0.4-0.7-1.3-0.7-2.3H0.6v8
					h3.2v-1.1c0-0.1,0.2-0.6,0.7-0.4c0.7,0.3,2.6,1.1,4.6,1.5c1.7,0.4,2.7,0.6,4.8,0.6c3.4,0,5.2-0.6,6.5-0.9c1.2-0.3,2.6-1,3.8-1.9
					c0.6-0.5,2.1-1.8,2.1-4.2c0-2.3-1.2-3.7-1.7-4.2c-0.6-0.6-1.3-1.1-2.1-1.4c-0.7-0.3-1.7-0.7-2.5-0.9c-1.6-0.4-5.3-0.9-7.1-1.1
					C11.1,8,7.9,7.7,6.6,7.3C6.2,7.2,5.4,6.8,5.4,5.9c0-0.7,0.4-1.2,1.1-1.7c1.1-0.7,3.4-1.2,5.8-1.2c2.8,0,5.2,0.6,6.8,1.3
					c0.5,0.2,1.1,0.6,1.6,1C21.3,5.8,22,6.7,22.3,8h2.6V1H22v0.8c0,0.3-0.3,0.6-0.8,0.3C20,1.5,16.3,0,11.9,0 M74.7,1.3l14,12.7
					l-0.1-8.5c0-1.1-0.2-1.6-1.4-1.6h-2.6V1.3h12v2.6h-2.6c-1.2,0-1.3,0.4-1.3,1.6l0.2,16.3h-4.1L72.6,7.3l0,10.2
					c0,1.1,0.1,1.6,1.2,1.6h2.9v2.6H64.9v-2.6h2.7c1,0,1-1,1-1.7v-12c0-0.8-0.1-1.7-1.7-1.7h-2.2V1.3H74.7z M110.1,19.2
					c0.1,0,0.6,0,0.7,0c0.3-0.1,0.5-0.3,0.5-0.5c0-0.1,0.1-0.5,0.1-0.6l0-4c0-0.1,0-0.1-0.2-0.4c-0.2-0.2-7.3-8.4-7.6-8.7
					c-0.4-0.4-1.1-1.1-2.2-1.1h-2.5V1.3h14v2.6h-1.7c-0.4,0-0.7,0.4-0.3,0.8c0,0,4.7,5.7,4.8,5.7c0,0.1,0.1,0.1,0.1,0
					c0.1-0.1,4.8-5.7,4.9-5.7c0.2-0.3,0.1-0.8-0.4-0.8h-1.7V1.3H130v2.6h-2.6c-0.9,0-1.3,0.2-2,1c-0.3,0.4-7.5,8.6-7.7,8.9
					c-0.1,0.1-0.1,0.3-0.1,0.4v4c0,0.1,0,0.5,0.1,0.6c0.1,0.2,0.3,0.4,0.6,0.5c0.1,0,0.6,0,0.7,0h2.6v2.6h-13.9v-2.6L110.1,19.2
					L110.1,19.2z"/>
			</g>
		</g>
	</g>
</g>
</svg>
